<svg enable-background="new 0 0 315.4 44.8" viewBox="0 0 315.4 44.8" xmlns="http://www.w3.org/2000/svg"><g fill="#fff"><path clip-rule="evenodd" d="m175.1 19.2v-.1h.5c.1-.7.6-1.7 0-2.3v-.1c.1 0 .3.1.5.1.1-.4.2-.7.3-1 0-.1-.4-.1-.3-.3h.1c.1-.1.4-.6.3-.9h-.1c0-.3 0-.6 0-.9-.2.1 0 0-.1.1-.3.2-.2.1-.3.5-.1 0-.3 0-.5 0 0-.2-.1-.4-.1-.6h.6c0-.2 0-.4 0-.6h.3c-.1-.6-.3-.6-.8-.5 0-.2 0-.4 0-.6-.1 0-.2 0-.3 0 0-.1-.1-.2-.1-.3-.3 0-.5 0-.8 0 0-.1-.1-.2-.1-.3-.3 0-.5 0-.8 0v-.1c.1 0 .3-.1.5-.1 0-.1-.1-.3-.1-.5h.1c.1-.2.1-.3.1-.6h.3c-.1.4 0 .3-.3.5 0 .1.1.3.1.5h.8c0-.1 0-.2 0-.3.1 0 .2.1.3.1v.1c.4-.1.3-.2.6-.3 0-.4-.1-.8-.1-1.2-.1 0-.3-.1-.5-.1v-.1c.1-.1.3-.5.1-.8-.1 0-.2-.1-.3-.1 0-.4-.1-.7-.1-1h-.1c0-.1 0-.3 0-.5h.1v.5h.1v.1h.1c0-.9-.3-1.6-.5-2.4-.3-.1-.1 0-.3-.1h-.1v-.1h.5s0-.6-.1-.3c-.2 0 .1.1-.1.1 0-.1-.1-.3-.1-.5h.3c-.1-.7-.2-1.4-.3-2.1-.2 0-.4.1-.6.1v-.1c-.5.5-.1.9-.3 1.4h-.1c0 .4.1.5.1.7h.6c-.1-.4-.2-.3-.3-.7.1 0 .3.1.5.1v.7c-.3 0-.5.2-.6.1v-.1c-.1 0-.2 0-.3 0 0 .5-.1 1-.1 1.5h.1c0 .2-.1-.1-.1.1 0 .4.1.6.3.8v.1c-.6 0-1.3.1-2 .1v.1c-.1 0-.3.1-.5.1v.5h-.1v.3h-.1v.3c-.1 0-.2.1-.3.1v.3h-.1v.3c-.1 0-.2.1-.3.1v.3h-.1v.3h-.1c.3-.7.5-1.4.8-2.1h.1c0-.1 0-.2 0-.3.1 0 .2-.1.3-.1 0-.1 0-.2 0-.3h.1c0-.1 0-.2 0-.3h.1c0-.1 0-.3 0-.5.1 0 .2-.1.3-.1 0-.2.1-.4.1-.6.1 0 .2-.1.3-.1 0-.1 0-.3 0-.5h.1c.1-.4.3-.8.5-1.2-.1 0-.2 0-.3 0 0-.1 0-.2 0-.3h.5c.1-.3.2-.4.3-.8-.2 0-.4 0-.6 0-.1.4-.2.5-.3.8-.2 0-.4.1-.6.1v.5c-.3.1-.1 0-.3.1-.1 0-.2 0-.3 0 .1-.1.2-.3.3-.5h-.1v-.1h.3c0-.3 0-.5 0-.8h-.1v-.1c-.1 0-.3 0-.5 0 0-.1 0-.3 0-.5.5 0 .7 0 .9.3h.1c.1-.3 0-.1.1-.3v-.1c-1.3 0-2.5 0-3.8 0-.1.4-.2.7-.3 1-.1 0-.2 0-.3 0-.1.1-.1.2-.1.3-.4 0-.8-.1-1.2-.1-.1-.3-.1-.5-.1-.8.3.1.1 0 .3.1h.6v-.1h.1c0-.1 0-.3 0-.5-1.9 0-3.8 0-5.7 0 .1.2.1.4.1.8h.1c0-.1 0-.3 0-.5h.1c.1.2 0 0 .1.1-.1.1-.3.3-.3.3-.2.4.5 2.3.6 2.6.1.4.1.8.1 1.2.5 1.3.8 3 1.2 4.4.1.4.1.8.1 1.2.4 1.1.7 2.5 1.1 3.6v.8c1.1 3.4 1.7 7.4 2.9 10.7-.1.1-.1.2-.1.3h.1v.6h.1v.6h.1v.6h.1v.8h.1v.6h.1v.6h.1v.6h.1v.6c.2.5.4 1.1.5 1.8h.3v-.1c.4-.3.1-.4.8-.5 0-.3.1-.5.1-.8-.1 0-.2 0-.3 0 0-.3 0-.3-.1-.5v-.1c.1 0 .3-.1.5-.1 0-.2 0-.5 0-.7h.1c.2-.5.1-.5 0-.9h.5c0-.5.1-1 .1-1.5.1 0 .2-.1.3-.1 0-.6-.1-1.2-.1-1.8h.3c0-.3 0-.5 0-.8h.5v.1h.1c-.1.2 0 .7-.1.9h-.1c.1.6 0 .5.6.6-.2.4-.3.6-.3 1.2h.3c0 .4.1.8.1 1.2-.1 0-.2.1-.3.1v.3h-.1v.6c-.1 0-.2.1-.3.1v.9c-.1 0-.2.1-.3.1v.6h-.1v.6h-.1v1.2h-.1v1.4h-.1c-.1.2-.1.3-.1.6h.3v.1c-.3 0-.1 1.2-.1 1.5h.1c.1-.6.2-1.2.3-1.8h.1c0-.5.1-.9.1-1.4h.1c0-.2 0-.4 0-.6h.1c0-.2 0-.4 0-.6h.1c0-.2 0-.4 0-.6h.1c0-.3 0-.5 0-.8.8-2.4 1.1-5.3 2-7.7 0-.5.1-.9.1-1.4h.1c0-.2 0-.4 0-.6h.1c0-.2 0-.4 0-.6h.1c0-.5.1-.9.1-1.4.2-.6.5-1.1.5-2 .1.5 0 .5-.1.5zm.2-8.9v.1c-.2 0-.4 0-.6 0v-.1zm-.9-4.8c.1.4.2.3.3.8-.1 0-.2 0-.3 0v.5h-.1c0-.1 0-.2 0-.3-.3-.1-.1 0-.3-.1.3-.1.1 0 .3-.1h.3v-.1c-.1 0-.3 0-.5 0 0-.1 0-.3 0-.5.1-.2.2-.2.3-.2zm-.6-3h.5v.1c-.4.2-.5-.1-.5-.1zm.3 2.2s0 0-.3-.3c0 .1.4.2.3.3zm-.8 5h.1v.3h-.1c0-.1 0-.2 0-.3zm-9 1.4c.3.1.1 0 .3.1-.3-.1-.2 0-.3-.1zm5.5-7c-.3-.1-.1 0-.3-.1.3.1.2 0 .3.1zm-.7-1.2c-.3-.1-.1 0-.3-.1.3.1.1 0 .3.1zm-.2 1.7c-.3-.1-.1 0-.3-.1.3 0 .2-.1.3.1zm-1 1.5c-.3-.1-.1 0-.3-.1.3 0 .1-.1.3.1zm-.3 14.2v.3c-.1 0-.1 0-.1 0 0-.1 0-.2 0-.3zm-.2-14.7v.3c-.1 0-.1 0-.1 0-.1-.1-.1-.3-.1-.5 0 .1.1.2.2.2zm-1.9.8c-.3-.1-.1 0-.3-.1h.1c.1-.2 0 0 .1-.1.1 0 .1.1.1.2zm-.2-1.8c.1-.4 0-.3.3-.5.1-.2 0 0 .1-.1.3.5.4.1.6.7h.4c-.1.5-.1.1 0 .6-.1 0-.3-.1-.4-.1v.3c-.1 0-.3 0-.4 0-.1-.5-.1-.3 0-.8-.2 0-.2-.1-.6-.1zm.6 8h.1v.3c.5 0 .7-.1 1.1-.1-.1.3 0 .1-.1.3v.1c-.3-.1-.6-.1-1.1-.1 0-.2 0-.4 0-.5zm.5-1.1c0-.1 0-.3 0-.5h.1v.5zm.6.9c0-.1 0-.3 0-.5h.1v.5zm-.3 4.5c-.1 0-.1 0-.1 0 0-.1 0-.3 0-.5h.1zm.3 1.2c-.1 0-.1 0-.1 0 0-.1 0-.3 0-.5h.1zm-.3-2.7c.1-.1.1-.2.1-.3h.1c.2.1-.2.3-.2.3zm.6-.6c-.4 0-.8 0-1.2 0v-.1h1.2zm-.3-3.6c0-.1 0-.2 0-.3-.1 0-.3 0-.4 0 0-.3 0-.5 0-.8 0 0-.2 0-.1-.3h.1c0-.4 0-.7 0-1-.1 0-.3 0-.4 0v.3c-.1 0-.1 0-.1 0 0-.3 0-.6 0-.9h.1v.3h.6v-.1h.1v.9s.2 0 .1.3c-.1 0-.1 0-.1 0v.6c.1 0 .2.1.3.1.1.3.1.6.1.9-.1 0-.2 0-.3 0zm.3-2.7h.1v.3c-.1 0-.1 0-.1 0 0-.1 0-.2 0-.3zm.1 15.8c.2.1.3.1.4.3-.3-.1-.2 0-.4-.3zm.8-5.4c-.3-.1-.1 0-.3-.1h.1v-.1h.1c.1 0 .1.1.1.2zm.4 6s-.1 0-.3-.3c.1.1.4.2.3.3zm.6-.9c-.1 0-.3 0-.4 0 0-.1 0-.2 0-.3.1 0 .3.1.4.1zm-.4-15.9c-.1.1-.1.2-.1.3-.1 0-.3 0-.4 0v.1c-.1 0-.1 0-.1 0 .1-.2.1-.4.1-.6.1 0 .2-.1.3-.1.2-.5.1-.8 0-1.2h.3c.2.5 0 .2.4.1.1-.5.6-1.4.9-1.7v-.1c.2.1.3.1.6.1-.1.2-.1.3-.1.6-.3 0-.5.1-.8.1v.5h.1c0 .2-.1-.1-.1.1 0 .1.1.3.1.5-.1 0-.2-.1-.3-.1v.9h-.1c-.4.6-.3.2-.8.5zm.9 19.5h-.1v.3h-.1c0-.1 0-.3 0-.5-.1.1.5.1.2.2zm.6-15.2c-.1 0-.3 0-.5 0 0-.1.1-.3.1-.5.1.1.1.2.3.3.1.1.1.2.1.2zm2.1-5.1c.1-.2 0 0 .1-.1v.3c-.3-.1-.1 0-.3-.1.1-.1.2-.1.2-.1zm-1.2 1.5h.5v.5c-.1 0-.2-.1-.3-.1-.1-.2 0 0-.1-.1-.1-.2-.1-.2-.1-.3zm-.6 3.8v-.1c.3 0 .5-.1.8-.1v.3c-.3-.1-.6-.1-.8-.1zm.7 2.7v.1c-.3.1-.4-.1-.5-.1zm-.1 8.9c-.3-.1-.1 0-.3-.1h.1v-.1h.1c.1 0 .1.1.1.2zm1.2.3c-.1 0-.2.1-.3.1v.9h-.1c0-.3-.1-.5-.1-.8.1 0 .2-.1.3-.1.3-.6-.1-1-.5-1 .1-.1.3-.3.3-.3 0-.4 0-.7 0-1h.1v-.1h.1c.2.4-.2.8-.1 1h.1v.1s-.2.1-.1.3c.1 0 .2.1.3.1zm.2-4.7h-.1v.8h-.1l-.1-.1c0-.1.1-.3.1-.6-.3-.1-.6-.2-1-.1v-.1c.3-.1.7-.3.9-.6h.1c0-.1 0-.3 0-.5-.1-.1.2 1.1.2 1.2zm.1-11.1h.5v.1c-.1 0-.3.1-.5.1 0 0 0-.1 0-.2zm.2 2.8c0-.1 0-.2 0-.3.3.1.1 0 .3.1h-.1c-.2.2-.1.1-.2.2zm.4 12.1h-.1c0-.1 0-.2 0-.3h.1zm1.2-3c-.3-.1-.1 0-.3-.1h.1v-.1h.1c.1 0 .1.1.1.2zm.3-2h-.1c0-.1 0-.2 0-.3h.1zm.2-6.2c-.1 0-.3.1-.5.1 0-.1 0-.2 0-.3h.5zm24.7 1.1c0-.3 0-.5 0-.8h-.1c-.2-.6 0-1-.3-1.4 0-.1-.1-.3-.1-.5-.4 0-.8-.1-1.2-.1 0-.1 0-.2 0-.3.4 0 .8.1 1.2.1-.2-1.1-.4-2.3-.6-3.5h-.1c0-.5-.1-1-.1-1.5-.4-1.1-.7-2.5-.9-3.8-3.1 0-6.1 0-9.2 0v.1c-.1 0-.3-.1-.5-.1v.1c-.1 0-.2 0-.3 0v.1h-.1v-.1c-.4 0-.8.1-1.2.1v-.1h.5c-.4-.4-2-.2-2.7-.1v.3h.9v.1c-.3 0-.6 0-.9 0-.2.6-.5 1.4-.5 2.3h1.1v.1c-.1 0-.3.1-.5.1v-.1c-.2 0-.4 0-.6 0 0 0-.2.3-.3.3 0 1-.4 1.8-.6 2.6-.1.9-.3 1.8-.5 2.7h-.1c-.1.6-.2 1.3-.3 2-.3.8-.6 1.8-.8 2.7-.2 1-.4 2-.6 3h-.1v.8h.1v.1c-.1 0-.2-.1-.3-.1 0 .7-.3 1.3-.5 1.8 0 .5-.1.9-.1 1.4h-.1c-.2.5 0 1-.3 1.4v.3c.2-.1.2-.1.3-.3h.1c0 .1-.1.3-.1.5h.1c0 .1.1.3.1.5-.3 0-.5 0-.8 0-.1.6-.3 1.3-.5 2h.5c.2-.5.1-1.2.5-1.5v-.1h.3c-.2.6.1.6-.3.9.1.6.2.5.5.9-.4-.1-.3-.2-.8 0v.1c-.2 0-.3-.1-.6-.1-.3.8-.6 2.1-.8 3h.3c0 .2-.1.4-.1.6-.1 0-.2 0-.3 0-.4 1.6-.7 3.2-1 4.8-.2.6-.5 1.4-.3 2-.1 0-.2 0-.3 0-.1.6-.2 1.2-.3 1.8h9.3c.2-1 .4-1.9.6-2.9-.1 0-.2 0-.3 0 0-.1 0-.2 0-.3h.5c.8-3.3 1.6-6.5 2.4-9.8-.1 0-.3 0-.5 0v-.1c-.2-.1 0 0-.1-.1h.1v-.1h.6v-.1c.3-.3.1-.7.3-1.2h.1c0-.2 0-.4 0-.6h.1c0-.2 0-.4 0-.6h.1c0-.4.1-.7.1-1 .3-.7.9-2.3.6-3h.3c.1-.5.2-1.1.3-1.7h.1c0-.2 0-.4 0-.6h.1c0-.1 0-.2 0-.3.3.3.1.7.3 1.2h.1v.6h.1v.6c.7 2 1.1 4.4 1.8 6.5v.6h.1v.6h.1c.2.5 0 .9.3 1.2v.6c.1 0 .2-.1.3-.1-.1.2-.1.2-.1.6.4-.1.3-.2.6-.3 0-.1.1-.2.1-.3-.1 0-.2 0-.3 0 0-.1 0-.2 0-.3.1.1.3.2.5.3.3-.4.6-.7.9-1 .2-.1 0 0 .1-.1-.1 0-.2 0-.3 0 0-.1 0-.2 0-.3.1 0 .2.1.3.1v.1c.1 0 .3-.1.5-.1v.1c-.8.4-.4.3-.8.9-.1 0-.2.1-.3.1-.4.4-.7.8-1.2 1 .7 3 1.4 5.9 2.1 8.9h.1c.5-1.3.5-3.2.9-4.5.2-.6-.1-1.2.3-1.7 0-.2 0-.4 0-.6-.1.1-.3.3-.3.3-.1 0-.3-.1-.5-.1v.1c-.1 0-.2 0-.3 0v-.1c.4-.1.8-.3 1.2-.5 0-.5.1-1.9.3-2.1-.2-.2-.3-.2-.5-.3v-.1c-.1 0-.3 0-.5 0-.1-.1-.1-.3-.3-.5v-.1c.1 0 .2.1.3.1l.1-.1c.1.2.2.3.5.5v.3h.3c.1-.3 0-.1.1-.3 0-.8-.3-.9-.6-1.4h.1v-.1h.1c.1.2.1.3.3.5v.3h.1c0-1.5.4-3.1.8-4.4 0-.3 0-.6 0-.9h.1c0-.3 0-.6 0-.9.4-1.3.5-3 .9-4.4 0-.3 0-.6 0-.9h.1c.1-.5.1-1.6 0-2 .8-.3.7-.3.7-.3zm-23.7 23.2c.3.1.1 0 .3.1-.3-.1-.1 0-.3-.1zm1.2.3c-.2 0-.4 0-.6 0 0-.1.1-.2.1-.3.1 0 .3.1.5.1zm.2-.9c-.1 0-.2 0-.3 0 0-.1 0-.2 0-.3h.3zm5.8-25.9c.5 0 .7-.1 1.1-.1.1.3 0 .1.1.3v.1c-.6 0-.8-.2-1.2 0 0-.1 0-.2 0-.3zm.7 9.9h.5v.1c-.1 0-.3 0-.5 0-.1.1 0 .3-.1.1 0 0 0-.1.1-.2zm-.2-4.4c0-.1 0-.3 0-.5.3.1.1 0 .3.1h.1v.1c-.1.2-.2.3-.4.3zm-.6-3.9h.1v.3h-.1c0-.1 0-.2 0-.3zm.4 5.7v.5c-.2 0-.4 0-.6 0v-.1c-.2-.1 0 0-.1-.1.2-.2.5-.2.7-.3zm-1.8-1.3c.2 0 .4-.1.6-.1 0-.6.1-.8-.5-.9v-.1c.4.1.3.2.8.3 0 .2-.1.4-.1.6h.1c0 .2.1.4.1.6-.3 0-.5.2-.6.1v-.1c-.1 0-.3 0-.5 0 .1-.2.1-.3.1-.4zm-.4-.6v.1c-.3.1-.4-.1-.5-.1zm-.6 2.7c.2-.1 0 0 .1-.1h.1c0 .2-.1.4-.1.6-.1 0-.2 0-.3 0 .1-.2.1-.3.2-.5zm-1.2 3h.1v.1h.1v.1c-.1 0-.2 0-.3 0 .1 0 .1-.1.1-.2zm0 .9h.1c0-.1 0-.2 0-.3l.3-.3h.3c0-.1.1-.2.1-.3.2-.1.1.1.1.1.3 0 .5-.1.8-.1 0-.1.1-.2.1-.3.3 0 .5-.1.8-.1v-.1c.4-.2.7-.3 1.2-.3-.3.4-.6.4-.8.9-.1 0-.2 0-.3 0-.1-.1 0-.2-.3-.1v.1c-.2 0-.4.1-.6.1v.1c-.6.2-1.2.4-1.8.6v.3h-.1c.1-.1.1-.2.1-.3zm.4 3.8v.1h-.1c0-.1.1-.3.1-.5.2.1.2.1.6.1v.1c-.2.2-.4.2-.6.2zm.2 4.5c-.3-.1-.1 0-.3-.1.3 0 .1-.1.3.1zm0-2.6c.3.1.2.2.6.3 0-.1 0-.3 0-.5h.3c-.1.2-.1.3-.1.6-.2 0-.4 0-.6 0-.1-.3 0-.1-.1-.3-.1 0-.1 0-.1-.1zm.7-2.1h.1v-.1c.3.1.1 0 .3.1-.2.1 0 0-.1.1 0 .1-.5.1-.3-.1zm.3-3.1c0-.1 0-.2 0-.3-.1 0-.2 0-.3 0v-.1c.3.1.4.1.6.3h-.1v.1c-.1 0-.1 0-.2 0zm-2.1 7.2v.1h-.1v.1h-.1c0-.3-.1-.6-.1-.9h.1c.2.4-.2.4.2.7zm-1.2-1.1c.3 0 .5-.1.8-.1v.5c-.2-.1-.4-.1-.8-.1 0-.2 0-.2 0-.3zm-.1 7c.3 0 .6.1.9.1v.1c-.6.1-.7.1-.9-.2zm.4 1.8c.3.1.1 0 .3.1-.3-.1-.1 0-.3-.1zm.5 0c.3.1.1 0 .3.1-.3-.1-.2 0-.3-.1zm.3-7.1c.3.1.1 0 .3.1-.3 0-.1.1-.3-.1zm.4-2.6v-.1h.5c-.1.3 0 .1-.1.3v.1c-.1 0-.3 0-.5 0 .1-.3 0-.1.1-.3zm.3 5v.5h-.1c0-.1 0-.3 0-.5zm-.3 1.2c.2 0 .4-.1.6-.1v.3c-.2 0-.4 0-.6 0 0-.1 0-.1 0-.2zm.9 2.4c-.3-.1-.1 0-.3-.1.2-.1 0 0 .1-.1.4.1.3.2.6.3v.3c-.3-.2-.2-.1-.4-.4zm.9 1.5c-.1 0-.2 0-.3 0v.1c-.3.1-.2-.1-.3-.1h-.1c.1-.3.1-.5.1-.9h.1v.8h.5zm1.1.2c-.1 0-.3 0-.5 0v.1s-.6 0-.3-.1h.1v-.1h.6c.1 0 .1 0 .1.1zm.3-4.2c-.2.1-.1.4-.3.5-.1 0-.2 0-.3 0 .1-.4.2-.3.3-.8h.3c0 .1.1.3.1.5-.2-.1.1-.1-.1-.2zm0 .4v.3h-.1c0-.1 0-.2 0-.3zm-.5 2.4c.3.1.1 0 .3.1-.3 0-.1.1-.3-.1zm.8-.6c-.1 0-.3 0-.5 0 0-.1 0-.2 0-.3.1 0 .3.1.5.1zm.1-5.7s-.2 0-.1.3h.1v.3c-.3.1-.1 0-.3.1-.1 0-.2 0-.3 0 .1.3.2.6.5.8v.5h-.1c-.1-.2-.1-.3-.1-.6-.1 0-.2 0-.3 0v.3c-.1 0-.2 0-.3 0 0-.1 0-.3 0-.5-.3 0-.5-.1-.8-.1v-.1h-.1c0-.3-.1-.6-.1-.9h-.1v-.1c-.2-.2-.1.3-.1.3h-.1c0-.1-.1-.3-.1-.5h.3c0-.1 0-.3 0-.5.1 0 .2.1.3.1v.1c.1 0 .3-.1.5-.1-.1.1-.3.2-.5.3v.1h.5c-.2.5-.1.5 0 1.1.6-.1.5-.2.9-.5 0-.3 0-.5 0-.8-.1 0-.3 0-.5 0 0-.1 0-.2 0-.3-.1 0-.2 0-.3 0 0-.1.1-.3.1-.5h.1c0-.2 0-.4 0-.6h.1c0 .2.1.4.1.6.3.1.6.2.9.3-.2.4-.2.6-.2.9zm.8-6.5v.1c-.1 0-.3-.1-.5-.1 0 .1-.1.3-.1.5-.1 0-.2 0-.3 0v.1c-.3.3-.1.3-.6.5.1-.3 0-.1.1-.3 0-.1 0-.2 0-.3-.2.1-.2.1-.3.3-.2 0-.4 0-.6 0v-.1h-.1v-.1h.6c.3-.2 0-.5.1-.8h.1v-.1h.5v.5h.1c.2.2 0 .1.3.1 0-.1.1-.2.1-.3 0 0-.3-.1-.1-.3h.1v-.1c.1.1.3.3.6.1.1 0 0-.2.5-.3v.3c-.1 0-.2 0-.3 0 0 .2.1.2-.2.3zm.8.9s0 0-.3-.3c0 .1.4.2.3.3zm0-14.7c0-.1 0-.2 0-.3h.3v.3c-.1 0-.2 0-.3 0zm.1 9.6c.3.1.1 0 .3.1-.3 0-.1.1-.3-.1zm.2 2.4c0-.2 0-.4 0-.6h.1v.5c.1.2.1 0 .1.1 0 0-.1 0-.2 0zm.3-.7h-.1c0-.1 0-.2 0-.3h.1zm4-18c-.3-.1-.1 0-.3-.1.3.1.2 0 .3.1zm-1.8-.4h.1c0 .4-.1.4-.1.6-.3.1-.1 0-.3.1-.1 0-.3 0-.5 0 .4-.3.6-.1.8-.7zm0 9.5s0 0-.3-.3c.1 0 .4.1.3.3zm-.3-1.8c0-.1 0-.2 0-.3.3.1.1 0 .3.1h-.1c-.2.2 0 0-.2.2zm-.7 2.1h.1v.8h-.1c0-.3 0-.6 0-.8zm-.2.9h.3v.3h-.1v-.1c-.2-.2-.1 0-.2-.2zm0-3.8s0 0-.3-.3c0 .1.4.2.3.3zm-.9-7.8c.3.1.1 0 .3.1-.3-.1-.1.1-.3-.1zm.6 8v.3c-.1 0-.3 0-.5 0v-.1c.2-.1.4-.2.5-.2zm-.4 9.6c.3.1.1 0 .3.1-.3 0-.2.1-.3-.1zm1.8-.6c-.1 0-.3 0-.5 0v-.1c.3-.1.6-.2.8-.5h.1c-.1.2-.3.4-.4.6zm.7-4.1c-.1 0-.3.1-.5.1v-.1c-.4 0-.6 0-.8-.3h.1v-.1c-.3.1-.4.1-.6.3-.1 0-.3 0-.5 0 .4-.4-.1-.7-.1-1h.3c0 .2.1.4.1.6h1.8c.2.1.2.3.2.5zm-.4-2.5c.2.1.3.1.5.3-.4-.1-.4-.1-.5-.3zm.4-3.5v.1h-.1c0-.1 0-.3 0-.5.1 0 .2.1.3.1-.2.3 0 .2-.2.3zm.2-.7c.3.1.1 0 .3.1-.3-.1-.2 0-.3-.1zm.4.7c-.3-.1-.1 0-.3-.1h.1c.1-.2 0 0 .1-.1.1 0 .1.1.1.2zm.5-2.8c-.2 0-.4 0-.6 0v-.1c-.2-.1 0 0-.1-.1.2-.1 0 0 .1-.1.4 0 .4.1.6.1zm.4-1.1c-.6.3-1-.4-1.5.3-.1 0-.3 0-.5 0v-.1h.5c0-.1 0-.2 0-.3.3-.1.1 0 .3-.1.5 0 .9 0 1.2.1zm.3 0c0-.1.1-.2.1-.3.1 0 .3.1.5.1v.1c-.2.1-.4.1-.6.1zm.6.8c.3.1.1 0 .3.1-.3-.1-.1 0-.3-.1zm1.1 10.9c0-.1.1-.2.1-.3h.1c.2.1-.2.3-.2.3zm-.3-2.1h.6v.1h-.1v.1c-.3 0-.4 0-.5-.2zm1.2-5.5h-.1c0-.1 0-.2 0-.3h.1zm0-4.3v.1c-.3 0-.6 0-.9 0v.1h.1c0 .3 0 .1-.1.3v.1c-.1 0-.3 0-.5 0 0-.2 0-.4 0-.6h-.1v-.1c.8 0 1-.2 1.7-.3-.2.4 0 .3-.2.4zm-.2-2.8c.3.1.1 0 .3.1-.3-.1-.1.1-.3-.1zm3.3 27.1c.3.1.1 0 .3.1-.3 0-.1.1-.3-.1zm0-1.8c.3.1.1 0 .3.1-.3-.1-.1.1-.3-.1zm1.4 1.2h.3c-.1.3 0 .1-.1.3v.1h-.1c-.1-.1-.1-.3-.1-.4zm.9-23.5c-.3-.1-.1 0-.3-.1.3 0 .1-.1.3.1zm-.1 10.2v.3c-.3-.1-.1 0-.3-.1h.1v-.1c.1-.1.1-.1.2-.1zm-.2-4.9v.1c-.3.1-.4-.1-.5-.1zm-2.1-5.3h.6v.1c-.2 0-.4 0-.6 0zm-.2 2c-.3-.1-.1 0-.3-.1.3 0 .2-.1.3.1zm-.1 1c0-.1 0-.2 0-.3h.1v.3zm.1 8.7v.3h-.1c0-.1 0-.2 0-.3zm-1.2-7c.1 0 .3-.1.6-.1.1.2 0 0 .1.1-.1.4 0 .3-.3.5-.2.2 0 .1-.3 0v-.1c-.1 0-.3 0-.5 0 0-.1.1-.3.1-.5zm-.1 2.7h.3v.3h-.1v-.1c-.2-.2-.1-.1-.2-.2zm-.5-5h.3v.3c-.3.1-.1 0-.3.1h-.1c0-.1.1-.2.1-.4zm-.1 1.5h.1v.3h-.1c0-.1 0-.2 0-.3zm0 3.6c.3.1.1 0 .3.1-.3 0-.1.1-.3-.1zm.6 7.7v-.1c-.1 0-.2.1-.3.1 0-.1-.1-.3-.1-.5h.1c0-.1 0-.2 0-.3h.1c.1-.4-.1-.8-.1-1 .2-.1 0 0 .1-.1.3 0 .5.1.8.1v.1c.5-.1 1-.2 1.5-.3 0-.1 0-.3 0-.5h.3c0 .4 0 .5-.1.8h-.1v.5c-.1 0-.2.1-.3.1v.9c-.4.1-.5.2-.6.6-.7 0-.8-.2-1.3-.4zm2.1-.7v.3h-.1c0-.1 0-.2 0-.3zm-.3 1.5h-.1c0-.1-.1-.3-.1-.5.2.2.1.1.2.5zm-1.1.7h.1c0-.1 0-.2 0-.3h.1c0 .2-.1.4-.1.6h.3v.5c-.1 0-.3 0-.5 0 0-.1.1-.3.1-.5.2 0-.1-.1 0-.3zm.2 2.7c-.2-.1-.2-.1-.6-.1v-.1c.1 0 .3-.1.5-.1-.1-.4-.1-.7-.5-.9 0-.1 0-.2 0-.3.1 0 .3.1.5.1.1.3 0 .1.1.3zm.9-.7c-.1 0-.3 0-.5 0v.1h-.1c0-.1.1-.2.1-.3h-.1c-.2-.4-.1-.4 0-.8.3.3.3.5.6.8zm.2-1.1h-.1c-.1-.2-.1-.2-.3-.3 0-.3.1-.5.1-.8.6-.1.4-.1.9 0-.1.4 0 .3-.5.5 0 .2-.1.4-.1.6zm.6.9v.3c-.1 0-.2 0-.3 0 0-.1 0-.2 0-.3zm-.3 6.2v.1h-.1c0-.1 0-.2 0-.3.3.1.1 0 .3.1-.1.1-.2.1-.2.1zm-.2-.8c.3.1.1 0 .3.1-.3 0-.1.1-.3-.1zm1.4-3.3c-.1 0-.2 0-.3 0v.3c-.3 0-.5 0-.8 0v-.1c.2-.1.4-.1.8-.1 0-.3 0-.5-.1-.6-.1 0-.2 0-.3 0-.1-.1-.1-.2-.3-.3v-.1c.3.1.5.1.9.1 0-.1-.1-.3-.1-.5h.5v.1h.1c-.5.6-.6.5-.4 1.2zm.6-1.6c-.1 0-.3 0-.5 0v-.1s-.6 0-.3-.1h.1v-.1c.2.1.4.2.6.3.1-.1.1-.1.1 0zm.3-4.7h-.1v.1h-.1c0-.1-.1-.2-.1-.3h.5c-.2.1-.2.2-.2.2zm-.5-2.1c0-.2 0-.4 0-.6.2.2.3.6.5.9-.2-.1-.3-.2-.5-.3zm23.2-8h.3v-.1h.5c0-.1.1-.2.1-.3h.3c.1-.1.2-.3.3-.5.2-.1.3.1.3.1.3 0 .5-.1.8-.1.1-.2.2-.4.3-.6h.3l.3-.3h.3v-.1h.3v-.1c.3 0 .6-.1.9-.1v-.1c.2 0 .4-.1.6-.1 0-.1.1-.2.1-.3.1 0 .2.1.3.1.1-.2.3-.4.5-.6h.6c0-.1.1-.2.1-.3h.3v-.1h.3v-.1c.1 0 .5.3.8.1v-.1c.4-.1.3 0 .5-.5.3 0 .5-.1.8-.1.1-.4.1-.4.3-.6h.1c.2-.5-.3-1.9-.3-2.4-8.2 0-16.9 0-24.5 0-.2 1.4-.4 2.7-.6 4.1h-.1c-.2.6.1 1.2-.3 1.7v.6c.1-.1.3-.2.5-.3v.1h.3v.1c-.4.1-.5.3-.9.5 0 1.2-.3 2.5-.6 3.5 0 .5.1 1 .1 1.5-.3.1-.1 0-.3.1-.4.4-.1 1.2-.3 1.8h-.1v.9h-.1c-.1.3.1.9.1.9-.1 0-.2.1-.3.1v.6h-.1v.9h-.1c-.2.6 0 1.3-.3 1.8.1.3.5.1.5.6h-.1c0 .2-.1.4-.1.6-.1 0-.2.1-.3.1v.5h-.1v.8h-.1v.9h-.1c-.2.7-.1 1.2 0 1.8h.6c-.1.1-.2.1-.3.3h-.1c-.2.2.3.1.3.1v.1c-.1.1-.3.3-.3.3-.1 0-.3 0-.5 0v.1h-.1v.6c.1 0 .2.1.3.1v.3c-.1 0-.3 0-.5 0-.1.7-.3 1.5-.5 2.1-.1.4.2.7.1.8h-.1c0 .1-.1.3-.1.5.4.1 0 .1.5 0v.3c-.1 0-.3 0-.5 0-.2 1.1-.5 2.3-.5 3.3l.1.1c-.1 0-.2.1-.3.1v.8h-.1c0 .2.3.3.1.6h-.1c-.2.6-.1 1.1 0 1.7h2.4c0-.1 0-.3 0-.5h.5c-.1.2-.1.2-.3.3v.1h7.4c0-.5.2-.9.3-1.2 0-.1-.1-.2-.1-.3h.1c0-.1 0-.2 0-.3h.1c0-.4.1-.8.1-1.2h.1c0-.5.1-.9.1-1.4h.1c0-.2 0-.4 0-.6.3-.7.5-1.7.8-2.4 0-.2 0-.4 0-.6h.1c0-.2 0-.4 0-.6h.1c0-.4.1-.8.1-1.2h-.1s0-.6.1-.3v.1h.1c.5-2.3 1-4.5 1.5-6.8.2-.7.7-1.7.5-2.4h.3c.1-1.2.4-2.2.8-3.2.1-.6.2-1.2.3-1.8h.1c.1-.6.2-1.3.3-2h.1c0-.1 0-.2 0-.3-.1.1-.3.2-.5.3v.1c-.4 0-.7.1-1 .1 0 .1-.1.2-.1.3-.1 0-.2 0-.3 0v.1c-.3 0-.6.1-.9.1v.1c-.1 0-.2 0-.3 0v.1c-.1 0-.3 0-.5 0-.1.1-.2.3-.3.5-.4 0-.8.1-1.2.1v.1c-.1 0-.2 0-.3 0v.1c-.1 0-.2 0-.3 0v.1c-.1 0-.2 0-.3 0v.1c-.1 0-.3 0-.5 0v.1c-.1 0-.2 0-.3 0v.1c-.1 0-.3 0-.5 0v.1c-.3 0-.5 0-.8 0-.4.1-1.1.5-1.8.3v-.1c-.1 0-.2 0-.3 0v-.1c-.1 0-.2 0-.3 0v-.1c-.3-.2-.2.1-.5-.1h-.1c0-.3-.1-.5-.1-.8h.1v-.1h.1c0 .1-.1.3-.1.5.6.1 1.2.2 1.8.3 0-.1.1-.2.1-.3h1.1v-.1h.5v-.1h.6c0-.1.1-.2.1-.3h.5v-.1h.3v-.1c.5 0 .9-.1 1.4-.1 0-.1.1-.2.1-.3.1 0 .3-.1.5-.1v-.1c.5-.1 1-.2 1.5-.3 0-.1.1-.2.1-.3.7-.4 1.6-.7 2.6-.9.2-.8.7-1.8.5-2.6h.3c.3-1.4.6-2.8.9-4.2.3.3.1.7.3 1.2h.1v.6h.1v.6h.1v.8h.1v.6h.1c.2.5 0 .9.3 1.2v.3l.1-.1h.8c.1 0 .2-.1.2-.2zm7.1-6.8h.1v.3h-.1c0-.1 0-.2 0-.3zm-3.3 1.4h.1v.3h.1v.1c-.1 0-.2 0-.3 0v.3h-.1c.1-.2.1-.5.2-.7zm-.3.9c.3.1.6.1 1 .1v.1c-.4 0-.7 0-1 0 0 0 0-.1 0-.2zm.1.4v.1h-.1v.1h-.1c0-.1-.1-.2-.1-.3 0 .1.2.1.3.1zm-.4.7h.1v.3h-.1c0-.1 0-.2 0-.3zm-.8-.4h.3v.5h-.1v.1h-.1c-.1-.1-.1-.3-.1-.6zm-17.5 2.2c-.3-.1-.1 0-.3-.1h.1c.1-.2 0 0 .1-.1.1 0 .1.1.1.2zm-3.1 18v.1h-.1c0-.1 0-.2 0-.3.3.1.1 0 .3.1-.1.1-.2.1-.2.1zm12.3-10.8h.1v.6h-.1c0-.2 0-.4 0-.6zm.2.7h.1c.1.3-.1.2-.1.3v.1h-.1c0-.1 0-.2.1-.4zm-.3.8h.1v.1h-.1v.3h-.1c0-.1 0-.3.1-.4zm-1.1 2.1h.1v.5h-.1c0-.2 0-.3 0-.5zm.5 2h.1c0 .1-.1.2-.1.3-.6 0-1.1 0-1.4-.3.7 0 1.1.2 1.4 0zm-2.4 10.9h-.1c0-.1 0-.3 0-.5h.1zm.3-11.4c.1 0 .3.1.5.1-.1.5-.2.4-.3.9h-.1c-.1-.3-.1-.6-.1-1zm-.2 1.7h.3c0-.1 0-.2 0-.3h.1c-.1.3 0 .1-.1.3v.1c-.1 0-.2 0-.3 0zm0 1h.3v.3h-.1v-.1h-.1c-.1-.1-.1-.1-.1-.2zm-.1 5.6c-.3-.1-.1 0-.3-.1.3 0 .1-.1.3.1zm-.8-5h.1v.3h-.1c0-.1 0-.2 0-.3zm.3 5.4v.1c-.3.1-.4-.1-.5-.1zm-6.8-4.9h.1v.3h-.1c0-.1 0-.2 0-.3zm-1.5 2.5h.3v.3h-.1v-.1h-.1c-.1-.1-.1-.1-.1-.2zm-.6 1.7c.3 0 .6-.1.9-.1 0 .1.1.2.1.3h.5c0 .5-.1.9-.1 1.4-.1 0-.2 0-.3 0 0-.5 0-.8.1-1-.1 0-.2 0-.3 0 0-.1 0-.2 0-.3-.1 0-.2 0-.3 0v.5c-.1 0-.2 0-.3 0-.1-.4 0-.3-.3-.5 0-.2 0-.3 0-.3zm1.1 5.3v-.1h.3v.3h-.1v-.1c-.1-.1-.2-.1-.2-.1zm0-1.9c0-.1 0-.2 0-.3h.1v.1h.1v.1c0 .1-.1.1-.2.1zm-1.4-1.8c.2 0 .4-.1.6-.1.1-.3 0-.1.1-.3v.3h.5v.1c-.1 0-.3 0-.5 0v.3h-.1c0-.1 0-.2 0-.3-.3.1-.1 0-.3.1-.1 0-.2 0-.3 0 0 0 0 0 0-.1zm.6 2.8h-.1c0-.3 0-.6 0-.9.1 0 .2.1.3.1-.1.2-.1.5-.2.8zm-.1.9v.1h-.1c0-.2.1-.4.1-.6h.1c.2.3-.1.4-.1.5zm0-3.2s.4.1.3.3c0 0-.1 0-.3-.3zm-.5 5h.1v.3h-.1c0-.1 0-.2 0-.3zm-.1-1.1c-.3-.1-.1 0-.3-.1.3 0 .1-.1.3.1zm-.8-.6v.3h-.1v-.1c-.2-.1 0 0-.1-.1 0-.1.1-.1.2-.1zm.9 3.5h-.1c0-.1 0-.2 0-.3h.1zm1.2-1.4c-.1 0-.3 0-.5 0v.1c-.1 0-.2 0-.3 0v.1c-.5.2-.5-.1-.9.3-.3 0-.5 0-.8 0v-.1h.6v-.1h.5v-.1c.3 0 .6-.1.9-.1v-.1h.5c0-.1 0 0 0 0zm.5-.4c0-.1-.1-.2-.1-.3-.1 0-.3 0-.5 0v-.1c-.2 0-.4 0-.6 0v-.1h-.1l-.1.1c0-.1.1-.3.1-.5.3 0 .4 0 .6.1v.1h.3v.1c.3 0 .5.1.8.1v.1c.1 0 .2-.1.3-.1 0 .1.1.2.1.3h.5c0 .1.1.2.1.3h.1c.2.1 0 0 .1.1-.5.1-1.1-.1-1.6-.2zm1.8-5.8c-.1 0-.2 0-.3 0v-.1c.2-.1.4-.2.6-.3v.3c-.3.1-.1 0-.3.1zm.6 5.5v.1c.3.1.1 0 .3.1-.2.1-.3.1-.6.1.1-.3 0-.1.1-.3v-.1c.1.1.1.1.2.1zm-.2-4.4c.3.1.1 0 .3.1h.1v.3h-.1c-.1-.1-.2-.3-.3-.4zm2.3 7.1c0-.3-.1-.5-.1-.8h.6c0 .4.1.4.1.6-.2.1-.2.1-.6.2zm1.2-.8v.1c-.3-.1-.6-.2-.9-.3 0-.1 0-.3 0-.5h.1v.3c.2.2.4 0 .9 0 0 .4.1.2-.1.4zm-1-4.3v-.1c.1 0 .3.1.5.1 0-.1 0-.2 0-.3h.1v.1h.1c-.2.2-.6.5-.9.6v-.1c-.2-.3-.1-.1.2-.3zm-.8-1.3c0-.1 0-.3 0-.5.2.1.4.3.6.5v.1h-.1v.1h-.1v-.1c-.2 0-.3 0-.4-.1zm2.4 2.6v.1h-.1c0-.1 0-.2 0-.3.3.1.1 0 .3.1-.1.1-.1.1-.2.1zm.2 1.1v.5c-.1 0-.3 0-.5 0 .1-.5 0-.4.5-.5zm-.2-5.3c0-.1-.1-.3-.1-.5h.6v.3c-.2.1-.3.1-.5.2zm-1.5-.5c.2.3.1.2.5.3v.1c-.5-.1-.5 0-.6-.5-.5 0-.8 0-1.1.1 0-.1 0-.2 0-.3.9 0 1.8-.1 2.7-.1-.2.4-1 .4-1.5.4zm.9.8s0 0-.3-.3c0 0 .4.1.3.3zm.5 7.4h-.1v-.1h-.1v-.1h.3c-.1 0-.1.1-.1.2zm.3-.6v.1s-.6 0-.3-.1h.1v-.1c.3.1.1 0 .3.1zm0-4.2c0-.1.1-.2.1-.3h.1c.2 0-.2.2-.2.3zm-1.2-12.5h.9c.1-.5.4-.5.6-.9h.1c0 .4-.1.5-.3.8v.1c-.1 0-.3 0-.5 0v.3c-.3 0-.6-.1-.9-.1.1-.1.1-.2.1-.2zm-1-.5c.3 0 .3.1.3.1.3.1.2-.1.3-.1.2.1.1.1.1.5-.3 0-.5-.1-.8-.1.1-.2.1-.3.1-.4zm-.1 8.7h.6c.1-.3 0-.1.1-.3 0 .1.1.3.1.5h.3c-.3.2-.7 0-1.2 0 .1-.1.1-.1.1-.2zm-.6-8.8c.2.2.4.2.1.5h-.1v-.1h-.1c0-.2 0-.3.1-.4zm-.2 7.8c.1 0 .3.1.5.1v.1c-.1 0-.3 0-.5 0 0 0 0-.1 0-.2zm0 6.9h.5c.1.5.1.4.6.5v.1h-.1v.1c-.2.1-.2-.3-.6.1h-.1c-.1-.2.1-.3.1-.3 0-.4-.1-.3-.3-.5-.1.1-.1.1-.1 0zm0 1.4c.4 0 .7-.1 1-.1v-.1c.3 0 .2.4.6.3l.1-.1v.3c-.1 0-.3.1-.5.1v.1c-.1 0-.2 0-.3 0-.1.3-.2.5-.3.8 0 0-.6 0-.3-.1h.1c-.1-.3 0-.1-.1-.3v.1c-.1-.1-.3-.3-.6-.1 0 .1-.1.2-.1.3-.3.2-.3 0-.6.3-.3-.2-.5-.6-.6-.9.3-.1.6 0 .9-.1v-.1h.6c.1-.3.1-.4.1-.4zm-.1-4.9c-.3-.1-.1 0-.3-.1.3.1.1 0 .3.1zm-.3-3.6c.3.1.1 0 .3.1-.3 0-.1.1-.3-.1zm.3 4.8v.3h-.1v-.1h-.1v-.1c0-.1.1-.1.2-.1zm-.6-12c0-.1 0-.2 0-.3.2.1.3.1.5.3h.1c0 .1-.1.3-.1.5-.1 0-.3 0-.5 0 0-.1-.1-.3-.1-.5zm0 7.1v-.1h.1v.3c-.3-.1-.1 0-.3-.1.1-.1.1-.1.2-.1zm.4 2.2v.1c-.3 0-.5 0-.8 0v-.1zm-.7-2.4v.1c-.5-.1-.6-.3-1.1-.5v-.1c-.3 0-.5 0-.8 0v.1c-.2 0-.4-.1-.6-.1l-.1.1c0 .1.1.3.1.6h-.1c0-.1 0-.3 0-.5s-.2.1-.1-.1h.1c0-.1 0-.2 0-.3-.2 0-.4 0-.6 0 .2-.3.3-.2.5-.5-.2-.1-.1.1-.1-.1.4.2.6.3 1 .1v.3c.7.3 1.2.7 1.8.9zm-.5-4.3c-.1.3 0 .1-.1.3v.1c-.1 0-.2-.1-.3-.1v.3h-.1c0-.1-.1-.3-.1-.5h.1v-.1zm-.1-.6c0-.1 0-.2 0-.3h.1v.3zm-.2 1.9v.3c-.1 0-.2 0-.3 0 0-.1 0-.2 0-.3zm.2-5.2v.1h.1v.1c-.1 0-.2 0-.3 0 0-.1 0-.2 0-.3.1.1.1.1.2.1zm-.5-4.6c.3.1.1 0 .3.1-.3 0-.1.1-.3-.1zm1.2-3.7v.5c-.1 0-.2.1-.3.1v.3c-.1.1-.2.1-.3.3-.1 0-.2 0-.3 0v.5c-.4.1-.3 0-.5.3h-.1c0-.3.1-.6.1-.9.1-.1.3-.2.5-.3 0-.1-.1-.3-.1-.5.2.1.2.1.3.3.2-.2.4-.4.5-.8.3-.1.1 0 .3-.1.1.1.2.3.3.5-.2-.1-.3-.2-.4-.2zm.3-6.8h.3v.3c-.1 0-.2 0-.3 0 0-.1 0-.2 0-.3zm.5 1c-.1.2 0 0-.1.1 0-.1 0-.2 0-.3.3.1.1 0 .3.1-.1.1-.2.1-.2.1zm.9-1c.3.1.1 0 .3.1-.3-.1-.1.1-.3-.1zm1.5.4c-.1 0-.3 0-.5 0 0-.6 0-.7-.6-.8v-.1h.6c0 .2.1.4.1.6h.3c.1.1.1.2.1.3zm.9 1.4c0-.1.1-.2.1-.3h.1c.2.1-.2.3-.2.3zm.8 7.8h-.1v.1h-.1c0-.1-.1-.3-.1-.5.3.1.1 0 .3.1h.1c-.1.2-.1.3-.1.3zm.4-4c-.1.2 0 0-.1.1-.1-.2-.1-.3-.1-.6.1 0 .3.1.5.1-.2.4-.1.2-.3.4zm.3-2.1h-.1v.1h-.1c0-.1-.1-.2-.1-.3h.5c-.2.1-.2.1-.2.2zm1.2-.2c-.5-.1-.6-.1-.8-.5.3.1.4.2.8.3zm.3-1.1c0 .1-.1.2-.1.3h-.1v-.1c-.1 0-.2 0-.3 0 .5-.5 1.1 0 1.5-.3v-.1c.2.1.3.1.6.1-.4.3-1.1 0-1.6.1zm1.2 1.9c.6.2 1 .4 1.4.9-.5-.3-1.1-.5-1.4-.9zm2 1c.4.1.3 0 .5.3-.3-.1-.4-.1-.5-.3zm.4-1c.3.1.1 0 .3.1-.3-.1-.1 0-.3-.1zm3.5-1.1h.6v-.1h.1c0 .1-.1.3-.1.5-.2 0-.4.1-.6.1 0-.2 0-.3 0-.5zm36 8.1c-.1-.5-.2-1.1-.3-1.7-.1 0-.3.1-.5.1 0-.1-.1-.2-.1-.3-.3 0-.5.1-.8.1 0-.1 0-.2 0-.3h1v-.1h.1c0-.1-.5-2.3-.6-2.4 0-1-.2-.7-.6-1.2h-.1v-.1h.1v.1c.1 0 .2-.1.3-.1v.1h.1c-.1-.6-.3-.9-.3-1.7-.3.3-.1.3-.6.5 0-.1 0-.2 0-.3.1 0 .3-.1.5-.1-.1-1.8-.8-3.5-1-5.3-.7 0-3.2.1-3.3 0-2 0-3.9 0-5.9 0v.1c-.4.3-.1.2-.3.6-.3.1-.1 0-.3.1h-.1c.1-.5.1-.4.3-.8-.9-.4-2.7-.2-3.9-.1-.1 1.3-.5 2.7-.9 3.8v.8h-.1v.6h-.1v.6h-.1v.6h-.1v.8h-.1v.6h-.1v.6h-.1v.8c-.2.6-.3.5-.1 1.2-.1 0-.2 0-.3 0-.3 1.5-.6 3-.9 4.5h-.1c-.1.4-.1 1.2 0 1.4v.3c-.2-.2-.1 0-.1-.3-.3.3-.1.7-.3 1.2h-.1v.8h-.1v.6h-.1v.6h-.1v.8h-.1v.6h-.1v.6h-.1v.8c-.8 2.3-1 4.5-1.8 6.9-.1.9-.3 1.8-.5 2.7h-.1v.6h-.1v.6h-.1v.6h-.1c0 .5-.1.9-.1 1.4-.2.5-.4 1.1-.5 1.8h6.8c.7 0 2 .2 2.4-.1h.1c0-.4.1-.7.1-1h.1c0-.2 0-.4 0-.6.2-.7.5-1.7.8-2.4 0-.2 0-.4 0-.6.5-1.7 1-3.5 1.5-5.3.1-.6.2-1.2.3-1.8h.1c0-.1 0-.3 0-.5h.1c0-.2 0-.4 0-.6h.1c0-.2 0-.4 0-.6h.1c0-.2 0-.4 0-.6h.1c0-.4.1-.8.1-1.2.2-.6.5-1.5.6-2.3-.3-.1-.6-.2-.9-.3v-.1h-.1v-.1c.6 0 .7.2 1.2.3.2-1.1.6-2.3.9-3.3.2-.5 0-.9.3-1.2v-.1c.3.3.1.7.3 1.2.3.8.7 2 .8 3h.5c.1-.3 0-.1.1-.3v-.1h.1c-.1.4-.2.3-.3.6-.1 0-.2 0-.3 0 .1.5.2 1.1.3 1.7.1 0 .3.1.5.1 0-.1 0-.3 0-.5h.3c0 .3-.1.5-.1.8-.1 0-.2.1-.3.1-.1.4.2 1 .3 1.2v.6h.1v.6h.1v.6h.1v.6h.1v.5h.1c.4 1.8.8 3.6 1.2 5.4.3.9.6 2.1.9 3v.6c.2.5.4 1.1.5 1.8h.1c.1-.4 0-.7.1-1h.1c0-.3 0-.6 0-.9.4-1.3.5-3 .9-4.4 0-.3 0-.6 0-.9h.1c.2-.6 0-1.3.3-1.6 0-.7.1-1-.6-1v-.1h.8c0-.5.2-2 .5-2.3 0-.3 0-.5 0-.8h-.1c-.1-.1 0-.2-.3-.1v.1h-.1v-.1h-.1v-.1h.1v-.1c.2.1.4.1.8.1.1-.8.2-1.6.3-2.4-.1-.1-.3-.2-.5-.3 0-.1 0-.2 0-.3.3.1.2.2.6.3 0-.7.2-1 .3-1.5 0-.3 0-.6 0-.9h.1c0-.3 0-.6 0-.9h.1c0-.3 0-.6 0-.9h.1c0-.3 0-.6 0-.9h.1c0-.3 0-.5 0-.8h.1c0-.3-.1-.5-.1-.8-.2-.5-.1-.5 0-.6zm-1.4-3.6h.3v.3c-.1 0-.2 0-.3 0 0-.1 0-.2 0-.3zm-20.9 25.9c-.1 0-.3.1-.5.1-.2.2 0 .1-.3.1 0-.1-.1-.3-.1-.5h.9zm1.1-10.1h.1v-.1h.1v.3c-.2-.1-.1 0-.2-.2zm.4 9.7c-.1 0-.2 0-.3 0 0-.1 0-.2 0-.3h.3zm0-11.9h-.1v.1h-.1c0-.1-.1-.2-.1-.3h.5c-.2.1-.2.1-.2.2zm6.8-19.9h.9v.1c-.1 0-.2 0-.3 0v.1c-.1-.1-.5-.1-.6-.1zm.9 17.2c-.3-.2-.2-.1-.3-.5.1.1.2.3.3.5zm-.5-3.7v.5c-.1 0-.2 0-.3 0 0-.1 0-.3 0-.5zm-1.2-14.3h.3v.5h.3v.1c-.1 0-.3 0-.5 0v-.1h-.1c0-.2 0-.3 0-.5zm-1.2-.6c.1.2.5.1.6.1v.1c.3.2.2.1.3.5-.5-.1-.4-.3-.9-.5 0 0 0-.1 0-.2zm0 16.3h.1v-.1c.3.1.1 0 .3.1h.1v.1h-.1v.1h-.1v-.1c0 .1-.5 0-.3-.1zm-.9 8.9v.1c-.5 0-.4 0-.6-.3.2.1.4.1.6.2zm-.3 2.4c-.3-.1-.1 0-.3-.1.3 0 .2-.1.3.1zm-.3-2.9s0 0-.3-.3c.1.1.4.2.3.3zm-1-15.3h.1v.3h-.1c0-.1 0-.2 0-.3zm0 1.6h.1v.8h-.1c0-.3 0-.5 0-.8zm0 1.4h.1c0 .2 0 .6.1.3.1 0 .2.1.3.1v.1h-.1v.1h-.1v-.1c-.1 0-.2-.1-.3-.1 0-.1 0-.3 0-.4zm0 .7h.1v.5h-.1c0-.2 0-.3 0-.5zm0 6.2h.1v.5h-.1c0-.2 0-.3 0-.5zm-.9 8.7v.1c-.2-.1-.4 0-.6-.1 0-.1.1-.2.1-.3.3.1.1 0 .3.1.3.1.1 0 .3.1 0 .1-.1.1-.1.1zm-.3-2.5c0-.1-.1-.3-.1-.5h.5c0 .1.1.3.1.5-.2 0-.4 0-.5 0zm1.2 5.7c-.1 0-.3 0-.5 0 .1-.4 0-.3.5-.5zm0-5h-.1c0-.1 0-.2 0-.3h.1zm0-4.6h.1v.6h-.1c0-.2 0-.4 0-.6zm.3 3v-.1h-.1v-.1h.3c0-.1 0-.2 0-.3h.1c-.1.2-.1.3-.3.5zm.3 4.8h.3v.3h-.1v-.1h-.1c-.1-.1-.1-.1-.1-.2zm1.2.9c-.2 0-.4 0-.6 0v.3c-.1 0-.3 0-.5 0 0-.1 0-.3 0-.5h.5v-.1c.4 0 .4.1.6.1zm-.5-9.2c0-.1 0-.2 0-.3.3.2.5.3.6.6-.2-.1-.2-.2-.6-.3zm.8 1.8h.3v.3c-.1 0-.2 0-.3 0 0-.1 0-.2 0-.3zm.4 11v.1h-.1c0-.1 0-.3 0-.5h.3c-.1.4 0 .2-.2.4zm.6-8.6c-.3.1-.1 0-.3.1-.1 0-.2 0-.3 0v-.1c.3-.1.1 0 .3-.1h.3zm.3-7c0-.1 0-.2 0-.3-.1 0-.2 0-.3 0v-.1h.3c0 .1.1.3.1.5 0-.1 0-.1-.1-.1zm.6 5.7h-.1c0-.1 0-.2 0-.3h.1zm.3-2h-.1v.1h-.1c0-.1-.1-.3-.1-.5.3.1.1 0 .3.1h.1c-.1.2-.1.3-.1.3zm-.4-5.4v.1h-.1c0-.1.1-.2.1-.3.5 0 .7.1.9.5.3.1.1 0 .3.1-.2.1-.3.1-.6.1 0-.2-.1-.4-.1-.6-.2.1-.4.1-.5.1zm1 5.9s0 0-.3-.3c.1 0 .5.1.3.3zm0 2.4c-.1 0-.2.1-.3.1v-.1h-.1v-.1h.1c.2-.3.1-.2.5-.3-.1.1-.1.2-.2.4zm.2-3.5c.3.1.1 0 .3.1-.3 0-.1.1-.3-.1zm.7.6c-.5 0-.4 0-.6-.3h.5v.1h.1zm.5-4.8c-.3 0-.6 0-.9 0v-.1h-.1v-.1c.6.1.4 0 1 0zm-.2-14.4c.3.1.1 0 .3.1-.3-.1-.1 0-.3-.1zm1.1 6.7c.1 0 .2.1.3.1v.3h-.1c-.1-.1-.2-.2-.2-.4zm.4 3h-.1c0-.1 0-.2 0-.3h.1zm.2-3.4h-.1c0-.1 0-.2 0-.3h.1zm0-7.4c0-.3-.1-.5-.1-.8h.1c0 .3.1.5.1.8zm.4 1.2h-.1c0-.1 0-.2 0-.3h.1zm8 2.4c-.2 0-.7-.3-.8-.3v.1h-.1c0-.1-.1-.3-.1-.5.3.3.8.4 1 .7zm-.9-6.2c-.3-.1-.1 0-.3-.1.3.1.2 0 .3.1zm-1.3 1.4h.1v.3h-.1c0-.1 0-.2 0-.3zm.9 12.8c-.4.4-.7.3-.9-.1.3 0 .6 0 .9.1zm-1.1-11.8c.1-.2 0 0 .1-.1v.3c-.3-.1-.1 0-.3-.1.1-.1.2-.1.2-.1zm.2 2.8c-.3-.1-.4-.2-.6-.5.3.1.4.2.6.5zm-1.2 6.9c.3.1.5.2.8.3v.1c-.6 0-.6-.1-.8-.4zm.7 3.9c-.3-.1-.1 0-.3-.1.3 0 .1-.1.3.1zm-.7 0v-.1h.3v.1c-.1 0-.3.1-.5.1v.1c-.1-.1-.2-.3-.3-.5.2.2.3.2.5.3zm-.2-8.6c.3.1.1 0 .3.1-.3 0-.1.1-.3-.1zm0-.7c0-.1 0-.2 0-.3.6.1.4.1.9 0 0 .1.1.3.1.5-.3-.1-.6-.2-1-.2zm.2-1.1c.3.1.1 0 .3.1-.3 0-.2.1-.3-.1zm.6-4.1h-.1c0-.1 0-.2 0-.3h.1zm-.3-1.8h.1v.5h-.1c0-.2 0-.3 0-.5zm.1 4.9v.1c-.3.1-.1 0-.3.1-.1-.1-.2-.3-.3-.5h-.1v-.1h.1c0-.1 0-.2 0-.3h.1v.6c.2.1.4.1.5.1zm-.9-1.4h.3v.6c-.1 0-.2 0-.3 0 0-.2 0-.4 0-.6zm-.4-3.5h.3c-.1.2-.1.3-.1.6h-.1c-.1-.2-.1-.4-.1-.6zm0 14.8h.8c-.1.2-.1.3-.1.6-.2 0-.4 0-.6 0v.1h-.1c-.1-.2 0-.3 0-.7zm-.8-11c.1-.2 0 0 .1-.1v.3c-.3-.1-.1 0-.3-.1.1-.1.2-.1.2-.1zm-.4 9.5c.3.1.1 0 .3.1-.3-.1-.2.1-.3-.1zm.3 7.5c.3.1.1 0 .3.1-.3 0-.2.1-.3-.1zm.1-1.8c0-.1 0-.3 0-.5.3-.1.1 0 .3-.1h.1c0 .1-.1.3-.1.5h-.1v.1c-.1 0-.1 0-.2 0zm.8 2.7c-.2 0-.4 0-.6 0 0-.1 0-.3 0-.5h.6zm.3-.9c-.3-.3-.3-.5-.8-.6 0 0 0-.6.1-.3v.1h.5c0-.1 0-.2 0-.3-.3-.1-.1 0-.3-.1h.3c0-.4.1-.8.1-1.2h.3c0-.1 0-.2 0-.3-.1 0-.3.1-.5.1v.1h-.1c.1-.2.3-.4.5-.6-.2-.1-.3-.1-.6-.1v.3c-.3 0-.5 0-.8 0v-.1h.1c.1-.2.1-.2.3-.3v-.1c.2 0 .4.1.6.1.1-.2.2-.4.3-.6h.5v-.1c.2 0 .4-.1.6-.1v.6c-.1 0-.3 0-.5 0 .1.5.2.5.8.6v.5c-.4 0-.8.1-1.2.1 0 .2-.1.4-.1.6h.1v.1h-.1c0 .3-.1.6-.1.9h.3v.3c-.1 0-.2 0-.3 0zm.4.8c-.1 0-.2 0-.3 0v-.1h.1c.1-.3 0-.1.1-.3v.1c.1 0 .2-.1.3-.1v.3c-.2 0 0-.1-.2.1zm.6 5.1c-.3.1-.4-.1-.5-.1h.5zm0-.5c-.3-.1-.1 0-.3-.1h.1v-.1h.1c.1 0 .1.1.1.2zm0-5.8c-.3.1-.4-.1-.5-.1h.5zm0-.9h-.1v.3h-.1c0-.1 0-.3 0-.5-.1 0 .5 0 .2.2zm.9 7.3c-.2 0-.4 0-.6 0v-.1h.6zm.5 1.4c.3.1.1 0 .3.1-.3 0-.2.1-.3-.1zm.1-7.5v.3h-.1c0-.1 0-.2 0-.3zm-.1-.9c0-.1 0-.3 0-.5h.1v.5zm.1.3c.3.1.1 0 .3.1-.3-.1-.1 0-.3-.1zm1.1 1.9c-.1 0-.3 0-.5 0 0-.1 0-.3 0-.5h.3c.1.3 0 .1.1.3.1.1.1.2.1.2zm-.2-3.6h.3c0 .1-.1.3-.1.5-.2 0-.4.1-.6.1 0-.1 0-.2 0-.3.1 0 .2-.1.3-.1 0-.1-.1-.3-.1-.5-.2 0-.4 0-.6 0v.1c-.1 0-.2 0-.3 0v-.1c.5-.1.4-.2.9-.3 0-.3 0-.5 0-.8-.7-.1-.4-.1-.3-.6-.3 0-.5.1-.8.1v-.1h-.1c.3-.2.6.2.8-.8-.1 0-.3 0-.5 0v-.1h-.1c0-.1 0-.3 0-.5h.1v-.1h.1c.1.5.3.6.5 1h.3c0 .3-.1.6-.1.9h.1v.1c.2-.1.3-.2.5-.5h.1c-.5.9-.6 1.1-.4 2zm-.4-3.5s.4.1.3.3c0 0-.1.1-.3-.3zm.1-.4h-.1v-.1c.6 0 .6 0 .8.5-.4-.2-.5-.2-.7-.4zm1.4-5.7c-.3 0-.5-.1-.8-.1 0-.1 0-.2 0-.3.4.1.5.2.8.3zm.4 9.3h-.1c0-.1 0-.2 0-.3h.1zm13.4-16.9c-.2-.2-.2-.9-.1-1.4-1.9 0-4.2.1-5.6 0-.4 2.2-.7 4.3-1 6.5h.3v.1c-.1 0-.3 0-.5 0 0 .1-.1.6.1.5s-.1-.2.1-.1v.3c-.1 0-.2 0-.3 0-.1.3-.1.3-.1.3v.8h-.1c.1.6.3.7.8.9v.1c-.4-.1-.5-.2-.8-.3-.2.5-.3 1.4-.5 2v.9c-.3.9-.6 2.2-.6 3.3.5-.1.4-.1.8-.3v.1h.1v.1c-.4 0-.7.1-1 .1 0 1.2-.3 2.5-.6 3.5v.9c-.2.8-.4 1.9-.6 2.7v1h-.1v.6h-.1c-.2.6.1 1.2-.3 1.7v.6c.2-.1.2-.1.3-.3.3-.1.1 0 .3-.1-.1 0-.2 0-.3 0 0-.6.1-.5.3-.9h.1c-.1.2-.1.3-.1.6.3.1.1 0 .3.1.3.1.1 0 .3.1-.3.1-.4.2-.8.3-.2.8-.9.5-.5 1.6-.1 0-.2 0-.3 0 0 .4-.1 1.1-.3 1.4v.3h.1c0-.1.1-.3.1-.5h.3v.6c-.2 0-.4 0-.6 0 0 .3-.1 1.2-.3 1.4 0 .8 0 1 .6 1.2v.3c-.3 0-.5-.1-.8-.1-.3 1.4-.5 2.8-.8 4.2h.6c0-.1.1-.3.1-.5h.1c0-.1 0-.2 0-.3.1 0 .2-.1.3-.1 0-.1 0-.3 0-.5h.1c0-.1.1-.3.1-.5h.3c.1-.1.1-.3.3-.5v-.1h.1c0 .2-.1.4-.1.6-.1 0-.2.1-.3.1 0 .2-.1.4-.1.6h-.1v.6c-.1.1-.3.2-.5.3v.1h.6c0-.1 0-.3 0-.5h.5v.1c-.1 0-.2 0-.3 0v.3h.6c0-.2 0-.4 0-.6h.3c0-.1 0-.3 0-.5.2.3.3.1.5-.1h.1c-.1-.2-.1-.2-.3-.3v-.1c.1.1.3.3.3.3.1 0 .3-.1.5-.1v.1c.3.2.3.1.3.6-.3 0-.6-.1-.9-.1 0 .1.1.3.1.5-.1 0-.2 0-.3 0v.5c.6 0 1.4-.1 1.5 0 .8 0 .7-.3 1.2-.6 0-.1 0-.3 0-.5h.3c-.1.5-.2.7-.6.9v.1h3.5c.5 0 1.1.1 1.4-.1h.1c0-.3 0-.5 0-.8h.1c0-.1 0-.2 0-.3h.1c0-.2 0-.4 0-.6h.1c0-.2-.1-.3-.1-.6h.3c0-1 .3-1.8.6-2.6 0-.2 0-.4 0-.6h.1c0-.2 0-.4 0-.6h.1c0-.2-.1.1-.1-.1 0-.4 0-.8 0-1.2h-.1c0-.5.5-.6.3-1.2 0 0-.4-.4-.5-.5h.3c0-.6 0-1.3 0-2h-.1c0-.7.1-1.4.1-2.1.2.3.2 1 .1 1.5h.3c0 .1-.3.3-.3.3v2c.3.1.1 0 .3.1-.1 0-.2 0-.3 0v.5h.1v.1h.1c0-.3.1-.5.1-.8.1 0 .2-.1.3-.1.1-.5.2-1 .3-1.5.3-.7.8-1.9.5-2.7h.3c.3-1.4.6-2.7.9-4.1h.1c0-.5.1-.9.1-1.4.4-1.3.8-2.9 1.2-4.2 0-.3 0-.5 0-.8h.1c0-.4.1-.8.1-1.2.2-.7.5-1.7.8-2.4 0-.2 0-.4 0-.6h.1c.1-.6.2-1.3.3-2 .4-1.1.7-2.5 1-3.6 0-.3 0-.5 0-.7.2-.5.4-1.1.5-1.8-2.4 0-4.7 0-7.1 0 .8.9.8 1.4.8 1.8zm-10.2 32.4c-.1 0-.2 0-.3 0 0-.1 0-.2 0-.3h.3zm.4-2.7c-.3-.1-.1 0-.3-.1.3 0 .2-.1.3.1zm.3 3c-.2 0-.4 0-.6 0 0-.3 0-.5 0-.8.2.1.3.1.5.3h.1zm15.6-31.3h.1c.1.3-.1.2-.1.3v.1h-.1c0-.1 0-.3.1-.4zm-.6 2.1c0-.2.1.1.1-.1.3.1.1 0 .3.1h-.1v.1c0 .1-.6 0-.3-.1zm-.2 1.2h-.1c-.1.2 0 0-.1.1 0-.1 0-.2 0-.3.2.1 0 0 .2.2zm-.4-1.5c0-.1.1-.2.1-.3h.1c.2.1-.2.3-.2.3zm.3-.6v.1c-.3.1-.4-.1-.5-.1zm-1.2-2.9h.1v.3h-.1c0-.1 0-.2 0-.3zm-5.5 4.6c-.1 0-.2 0-.3 0v.3c-.2-.1-.1-.2-.3-.3v.1h-.1c0-.6.1-.4 0-.9.1.1.3.2.5.3v.3c.2.1.1 0 .2.2zm0 8.1c0-.1-.1-.3-.1-.5h.1v-.1h.1c0 .3.1.6.1.9-.1 0-.2 0-.3 0 0-.1.1-.2.1-.3zm-4-8.6c-.1 0-.3 0-.5 0 .1-.3 0-.1.1-.3v-.1c.1.1.3.3.6.1 0-.1.1-.2.1-.3.3-.3.5-.3 1.1-.3 0-.1.1-.3.1-.5.6-.1.8 0 1.7 0v.6h-.1v.1c-.1 0-.2 0-.3 0v.8c-.3.2-.4.4-.6.6s-.9.4-1.4.5c0-.1 0-.2 0-.3-.1 0-.3 0-.5 0-.1.3 0 .1-.1.3v.1c-.1 0-.3 0-.5 0-.1.3 0 .1-.1.3s0 0-.1.1c-.1-.2-.1-.3-.1-.6.6 0 .5-.1.9-.3-.1-.5-.1-.4-.3-.8zm3 8v-.1h.3v.3h-.1v-.1c-.1-.1-.2-.1-.2-.1zm-2.4 14c0-.1 0-.2 0-.3h.5c0 .1.1.3.1.5-.3-.1-.3-.2-.6-.2zm.6 3.6h-.1v.1h-.1c0-.1 0-.2 0-.3.2.1 0 0 .2.2zm-.8-15.2c-.3-.1-.1 0-.3-.1.3 0 .1-.1.3.1zm-.3-1.5c0-.1 0-.3 0-.5h.3v.5c-.1 0-.2 0-.3 0zm.3 6.5h-.1v.1h-.1c0-.1 0-.2 0-.3.2.1 0 0 .2.2zm0 2.2h.1v-.1c.3.1.1 0 .3.1h-.1v.1c0 .1-.6.1-.3-.1zm1.7-4.6v.3h-.1v-.1c-.3 0-.5 0-.8 0v-.1h.3c0-.2 0-.4 0-.6h.1v.6c.2-.1.3-.1.5-.1zm-.5-9.5c.3.1.1 0 .3.1-.3-.1-.1 0-.3-.1zm-.3 5.7v-.1h.3v.3h-.1v-.1c-.1-.1-.1-.1-.2-.1zm.3-4.2c-.3 0-.6 0-.9 0v-.1h.9zm-.3 5.2v-.1c.1 0 .2.1.3.1v.1c-.3 0-.6 0-.9 0v-.1zm-.3 6.4h.5v.1c-.3.2-.4-.1-.5-.1zm.6 6.3c-.3-.1-.1 0-.3-.1.3 0 .2-.1.3.1zm0 .1c.3-.1.1 0 .3-.1.3.1.2.2.6.3v.1c-.3 0-.6-.1-.9-.1 0-.1 0-.1 0-.2zm.2-12.3c.1-.4 0-.3.5-.5-.2.5-.1.4-.5.5zm.3-.9c.3.1.1 0 .3.1-.3 0-.2.1-.3-.1zm.4 6.3c-.3-.1-.1 0-.3-.1.3.1.2 0 .3.1zm-.1-3.1c0-.1.1-.3.1-.5h.1c.1.3-.1.2-.1.3v.1c0 .1-.1.1-.1.1zm-2.6-8.8c-.3-.1-.1 0-.3-.1.3.1.1 0 .3.1zm-.1 6v.1c-.3.1-.4-.1-.5-.1zm0 2.9v.1c-.3.1-.4-.1-.5-.1zm0 5.7c-.8 0-.6 0-1-.3 0-.1 0-.3 0-.5.3 0 .4 0 .6.1v.1c.3.4.2 0 .4.6zm-.5-1.8v.3c-.3 0-.5-.1-.8-.1 0-.1 0-.2 0-.3.5 0 .6 0 .8.1zm-.1-1.6c-.2 0-.4 0-.6 0v-.1h.6zm-.6-2.9c0-.1 0-.2 0-.3h.1v.3zm-.2-6v-.1h.5v-.1h.1c0 .1-.1.3-.1.5h-.1c-.2.3.2.2-.1.5v.1h-.1c-.2-.3.2-.5.1-.6-.1-.2-.1.1-.3-.1-.1-.2 0-.2 0-.2zm-.1 1.6h.3v.3c-.1 0-.2 0-.3 0 0-.1 0-.2 0-.3zm-.2 10.9c.4.1.4.1.6.5h-.1v-.1s-.9 0-.6-.1h.1c0-.2 0-.3 0-.3zm-2 .3c.1.1.2.3.3.5-.2-.2-.2-.2-.3-.5zm.2-2.6c.2.1.4.2.6.3v.1c-.4 0-.4-.1-.6-.4zm.8 10.3h-.1c-.1-.5-.1-.1 0-.6h.1zm.4-10.3c-.1 0-.2 0-.3 0-.1-.4-.2-.3-.3-.6.3-.1.6-.2.9-.3v.1h.1c-.1.5-.2.5-.4.8zm.2 10.7c.1-.2.1-.4.1-.8h.3c0 .1.1.3.1.5.4.1.3.2.8 0 .1.3.1.5.1.9-.6-.2-.5-.6-1.4-.6zm.4-6.8c.3.1.1 0 .3.1-.3 0-.1.1-.3-.1zm1.1 5v.1c-.1 0-.2 0-.3 0 0-.1 0-.2 0-.3h.1v.1c.1.1.1.1.2.1zm.3 4.2c-.1 0-.2 0-.3 0 .1-.3 0-.1.1-.3v-.1h.1c.1.1.1.3.1.4zm-.6-8.9v-.1h-.1v-.1c.1.1.3.2.5.3v-.1h.1c0 .1.1.3.1.5-.4-.3-.4-.3-.6-.5zm-.6-.6v-.1h-.1v-.1c.6-.2.9 0 1.7 0 0-.1 0-.3 0-.5.3 0 .6.1.9.1v.5h.1v.5h-.1c0-.1 0-.3 0-.5-.3 0-.5.1-.8.1v.3c.3.1.1 0 .3.1-.1 0-.2 0-.3 0 0 .1.1.3.1.5-.4-.3-.3-.3-.3-.9-.7 0-1-.2-1.5 0zm1.3 7.4c.1 0 .3-.1.5-.1v.1h.1v.5h-.1v.1c-.1 0-.3 0-.5 0 0-.2 0-.4 0-.6zm1.7 3.2c-.1 0-.3 0-.5 0v.1h-.1c0-.3 0-.5 0-.8-.2 0-.4 0-.6 0 .3-.8-.1-1-.3-1.8.3 0 .5-.1.8-.1 0 .4.1 1.3.3 1.5v.1c.1 0 .3-.1.5-.1-.3.5-.2.5-.1 1.1zm0-3.6v.1h-.1c0-.1 0-.2 0-.3.3.1.1 0 .3.1-.1.1-.2.1-.2.1zm.7.3c-.1 0-.2 0-.3 0 0-.1 0-.3 0-.5h.3zm0-2c-.1 0-.3 0-.5 0v-.1h-.1c0-.1 0-.3 0-.5.3.1.1 0 .3.1h-.1v.1c.1 0 .3.1.5.1-.1.2-.1.3-.1.3zm.3.2c.3.1.1 0 .3.1-.3-.1-.1 0-.3-.1zm.5-1.1h-.1c0-.1 0-.2 0-.3h.1zm0-4.8c-.1 0-.6.1-.5-.1h.1v-.1c.1 0 .2.1.3.1s.1 0 .1.1zm.1-2.3c-.2 0-.4 0-.6 0 0-.1 0-.3 0-.5.2.1.4.2.6.3zm0-8.6c-.1 0-.2 0-.3 0 0-.1 0-.2 0-.3h.3zm-.3-7.8c.1-.2 0 0 .1-.1 0-.1 0-.2 0-.3.2.2.3.8.5 1-.3-.2-.3-.1-.3-.6-.1 0-.2 0-.3 0zm.5 8.9h.1v-.1h.9v.1c-.3 0-.5 0-.8 0v.1c.1 0-.5 0-.2-.1zm.4 1c-.3-.1-.1 0-.3-.1.3.1.2 0 .3.1zm-.3 1.4h.5v.1h-.1v.1h-.1c-.2 0-.2-.1-.3-.2zm.3 7.7h-.1v-.1c.1 0 .3-.1.5-.1v.5c-.4-.3-.2-.1-.4-.3zm.6 3.7v.1h-.1c-.1-.2-.1-.3-.1-.6.1 0 .3.1.5.1-.2.4-.1.3-.3.4zm.9-2.2h-.1c-.1.3 0 .1-.1.3 0-.1-.1-.3-.1-.5h.5c-.2.1-.2.1-.2.2zm0-3c-.7.2-.4.3-1.2.1 0-.1 0-.2 0-.3.6-.1.3-.1.9 0 0-.1 0-.3 0-.5h.3zm-.3-6v.3c-.1 0-.2-.1-.3-.1v.1c-.2 0-.4 0-.6 0 0-.1 0-.3 0-.5h.8v.1c0 .1.1.1.1.1zm.6 3.1h-.1c0-.1 0-.2 0-.3h.1zm0-1.5h-.1c0-.1 0-.3 0-.5h.1zm.2-3v.1h-.1v1.8c-.1 0-.3-.1-.5-.1 0-.1 0-.2 0-.3h.3c-.1-.6-.1-.8 0-1.5-.1 0-.2 0-.3 0-.1-.4-.2-.3-.3-.6-.3 0-.5 0-.8 0v.3h-.1c0-.1 0-.3 0-.5h.6v-.1h.1v.1c.5 0 .5-.1.6-.5-.1 0-.2 0-.3 0 0-.1 0-.3 0-.5h.3c0-.3 0-.5 0-.8 0 0-.4-.1-.3-.3.1 0 .3-.1.5-.1-.1-.5 0-.7-.1-1.2h.1v-.1h.1c0 .9 0 1.8-.1 2.4.3.3.1.3.6.5v.1c-.1 0-.3 0-.5 0 0 .5-.1.8-.1 1.2.1.1.2.1.3.1zm.1-10.7v.1h-.1v.1h-.1c0-.4 0-.7 0-1.1h.1v.8c0 .1.1.1.1.1zm-.1 3c-.3-.3-.2-1.1-.1-1.7.2.3.1 1.2.1 1.7zm0 .3v.5h-.1c0-.1 0-.3 0-.5zm.4 11.9v.1s-.6 0-.3-.1h.1v-.1c.3.1.1 0 .3.1 0 0 0 0-.1 0zm.6-16.5c0-.1 0-.3 0-.5h.1c.1-.2 0 0 .1-.1 0 .2.1.4.1.6 0 0-.1 0-.3 0zm-.4-2.9h.1v.6h.1c0-.3.1-.5.1-.8 0-.1.2-.1.3-.3h.1c-.1.1-.3.3-.3.3v.6h-.1c-.1.3-.2.7-.1 1.2h-.1c0-.2 0-.4 0-.6-.2.1-.4.3-.6.5 0 .9.2.9.8 1.2v.3c-.5-.1-.5-.4-.9-.6-.3.4-.8.7-1.2.9v.5c-.1 0-.2 0-.3 0 0-.4.1-.7.1-1 .1 0 .2-.1.3-.1 0-.3 0-.5 0-.8.6-.3.3-.3.6-.6v-.1c.1 0 .3.1.5.1.1-.5.1-.1 0-.6l.1.1c.1 0 .3-.1.5-.1 0-.2 0-.5 0-.7zm25.7 3.3c.2-.4-.1-1.3-.1-1.5 0-.4.1-.4.1-.5 0-1 0-1.9 0-2.9-2.8 0-5.5 0-8.3 0v.3h-.1c0-.1 0-.2 0-.3-1 0-2.6-.3-2.7.6h-.1c0-.2 0-.4 0-.6h-.1c-.2.2-1.1-.2-1.7.3 0-.1 0-.2 0-.3h-.1v.6h.3c0 .5 0 .4-.3.6v14.3 4.4c.1 0 .3.1.5.1v.1c-.3-.1-.1 0-.3-.1h-.1v12.5c.5 0 .4 0 .6-.3h.1c-.2.3-.4.5-.8.6v2.1h.1c0 .3-.1.3-.1.3v1.4c1 0 4.2.2 4.5-.3h.1c0 .1-.1.2-.1.3h3.2c-.1-.5-.3-.6-.9-.6v-.1h.1v-.1c.1 0 .2.1.3.1v-.1h.1c.1.1 0 .2.3.1.2 0-.1-.2.1-.1v.1c.2 0 .4.1.6.1 0-.1.1-.3.1-.5h.3c0-.1 0-.3 0-.5h.1c0 .4 0 .4-.1.6h-.1c0 .1.1.3.1.5-.1 0-.2 0-.3 0v.1c.3.2.8-.1.9-.1 0-.1 0-.2 0-.3.1.1.3.2.5.3.1-.1.1-.2.3-.3v.3h.3c0 .1.1.2.1.3h.8v.1h1v-.1c.3 0 .5.1.8.1 0-.1 0-.2 0-.3-.1 0-.2 0-.3 0 0-.1 0-.2 0-.3-.4 0-.5-.1-.8-.3-.1 0-.2 0-.3 0v-.1c.3.1.4.1.6.3.5-.1.4-.1.8-.3 0-.3 0-.5 0-.8h-.1c0-.3.1-.3.1-.3 0-.8 0-1.6 0-2.4-.5-.1-1.1-.3-1.4-.6-.1 0-.2 0-.3 0v-.1c.3 0 .6.1.9.1 0 .1.1.2.1.3h.5v.1h.1c0-.5.1-1.5-.1-1.7-.1 0-.2 0-.3 0v.5c-.1 0-.3.1-.5.1 0-.1 0-.3 0-.5h-.1s.1.5-.1.3v-.1c-.4-.1-.3 0-.5-.5h.3c0-.6-.1-.5 0-1-.3 0-.5 0-.8 0v-.1c-.2-.1 0 0-.1-.1.3-.2.4-.2.5-.6.1 0 .3.1.5.1 0-.7 0-1.5-.1-2h.3v.5h.1c.1.2-.1 0-.1.1 0 .2.3.2.5.3v.1c-.1 0-.2 0-.3 0-.1.2.1.1.1.1 0 .3-.3.3-.3.3s.1.5.1.6c.4.1.3.2.8.3.3-.8.3-1.8.3-2.9 0-.4 0-.7 0-1-.1-.1-.4-.1-.5-.3.8-.2.5-2.2.5-3.2 0-3.4 0-5.9 0-9.3 0-1.6 0-3.2 0-4.8 0-.3-.1-1.7-.1-1.7h.1c0-.2 0-.4 0-.6-.1.1-.1.2-.3.3v-.1h-.1c-.2.2.3 0 .3 0zm-.3 30.7c-.1 0-.3 0-.5 0 0-.1 0-.2 0-.3.1 0 .3.1.5.1zm-.4-3.3c.4.4.2.6.1 1.2-.3-.3-.3-.8-.1-1.2zm-.8-.3h.1c.1.2 0 0 .1.1v.1c-.1 0-.2 0-.3 0 .1 0 .1-.1.1-.2zm.3 1.2v.1h-.1v.1h-.1c0-.1-.1-.2-.1-.3 0 .1.2.1.3.1zm-.3 2.4c-.3-.1-.1 0-.3-.1.3.1.2 0 .3.1zm-.3-30.2h-.1v.1h-.1c0-.1 0-.2 0-.3.2.1.1 0 .2.2zm-.1 6.3v.3h-.1c0-.1 0-.2 0-.3zm-.6-8.9c.3-.1.1 0 .3-.1h.1c0 .1-.1.2-.1.3-.1 0-.2 0-.3 0 0-.1 0-.2 0-.2zm-.9 25.6c0-.1.1-.3.1-.5-.7-.1-1.5-.5-1.8-1-.1 0-.2 0-.3 0v-.1c.4.1 1 .2 1.2.5.3.2.2.1.3.5h.3c0-.1 0-.3 0-.5h.5c-.1.2-.1.2-.3.3.1.5.4.5.9.6 0 .2-.1.4-.1.6-.1 0-.2 0-.3 0 .1-.3 0-.1.1-.3v-.1c-.3-.3-.5-.1-.6 0zm-.9 5.3c0-.1.1-.3.1-.5h.1v.6h-.1v-.1zm0-3.2c.3.1.1 0 .3.1-.3 0-.2.1-.3-.1zm-.6.2c0-.1 0-.2 0-.3-.1 0-.2 0-.3 0v-.1c.3 0 .5.1.8.1v.3c-.2 0-.4 0-.5 0zm.3.7c-.1.2-.1.3-.1.6h-.1c0-.3-.1-.5-.1-.8.3.1.1 0 .3.1-.1.1-.1.1 0 .1zm-.9-6.8c-.1.3 0 .1-.1.3v.1h-.1c0-.1 0-.3 0-.5 0 .1.1.1.2.1zm-.2-12.9h.1c.1-.2 0 0 .1-.1v.3c-.2-.2 0 0-.2-.2zm-.3 3.6h.3c0 .1-.1.3-.1.5-.3.1-.1 0-.3.1h-.1c0-.1 0-.3 0-.5.2 0 .1.1.2-.1zm0-2.4h.3c0 .6-.1 1.3-.1 2-.3-.4-.2-1.4-.2-2zm.6 16.7c-.2-.1-.3-.1-.5-.3.4.1.4 0 .5.3zm.3 3c-.3-.1-.1 0-.3-.1.3.1.2-.1.3.1zm-.3-4.2c.3.1.1 0 .3.1-.3 0-.1.1-.3-.1zm.8.9c.3.1.1 0 .3.1-.3 0-.2.1-.3-.1zm.6-17.8v.1c-.3 0-.6 0-.9 0v.1h-.1c0-.1.1-.2.1-.3.3.1.6.1.9.1zm-.6-.6c.3.1.1 0 .3.1-.3 0-.2.1-.3-.1zm.3-1.5c0-.1 0-.2 0-.3h.1v.3zm1-3.7c0 .3-.1.5-.1.8h-.1c0-.1 0-.3 0-.5h-.1v-.1h-.1v.1c-.3 0-.1 0-.3-.1s0 0-.1-.1c.2-.3.2-.2.8-.1zm-1.3-.9c0-.4 0-.7 0-1h.1c.2.4.3.6.3 1.2-.1-.1-.3-.2-.4-.2zm1.6 10h-.1v-.1c-.2-.1 0 0-.1-.1h.3c-.1 0-.1.1-.1.2zm.2 2.8v.3h-.1c0-.1 0-.2 0-.3zm-1.1-2.6c-.3-.1-.1 0-.3-.1-.2-.2 0-.4 0-1.1-.3-.1-.1 0-.3-.1h-.1v-.1c.1 0 .3.1.5.1 0-.1 0-.3 0-.5h.1c0-.3 0-.5 0-.8h.1v.1h.1c0 .2-.3.4-.1.8h.1c0 .2.1.4.1.6h-.1v.3c-.1 0-.2.1-.3.1.1.3.2.5.2.7zm.5 8.7c-.3-.1-.1 0-.3-.1.3.1.1 0 .3.1zm-.2-14.1c0-.1 0-.2 0-.3h.3v.3c-.1 0-.2 0-.3 0zm-1.5 5.4h.5v.1c-.3.2-.4 0-.5-.1zm.2 6.8v.3h-.1c0-.1 0-.2 0-.3zm.1-10.9c-.2 0-.4 0-.6 0v-.1h.6zm2.1 16.4c.3.1.1 0 .3.1-.3 0-.1.1-.3-.1zm0-21.8h-.1c.1-.5 0-.3 0-.9h.3c.1.3 0 .1.1.3-.1.4-.1.3-.3.6zm0-2v.3c-.4 0-.7-.1-1-.1v-.1h.8v-.1h.6v.1c-.2-.1-.3-.1-.4-.1zm-1.5-2.8h.1v.3h-.1c0-.1 0-.2 0-.3zm-.9 1.3h.6c0 .5.1.7.1 1.1.5 0 1.1-.1 1.7-.1-.3.3-2.4.6-2.6.5-.1 0-.2 0-.3 0 .3-.5.5-.9.5-1.5zm-.4 3.7h.3c0-.1 0-.3 0-.5h.1c0 .6.1.8-.5.9.1-.1.1-.3.1-.4zm0 1.3h.6v.3c-.2 0-.4 0-.6 0 0-.1 0-.2 0-.3zm.1 1.5c.5 0 .9 0 1.2.1v.1c-.6 0-.9.1-1.4.1.1 0 .2-.1.2-.3zm0 .8h.6v.1c-.2.1 0 0-.1.1-.2 0-.4 0-.6 0 0 0 .1-.1.1-.2zm-.1 1.3v.1c-.1 0-.2 0-.3 0 0-.1 0-.2 0-.3h.1c.2.2 0 .1.2.2zm-.5-3.4c.3.1.1 0 .3.1-.2.1 0 0-.1.1-.1 0-.3 0-.5 0v-.1c.3-.1.2 0 .3-.1zm-.9-6.7h.1v.3h-.1c0-.1 0-.2 0-.3zm.3 4.6v.3h-.1c0-.1 0-.2 0-.3zm-.6 23.4v-.1h.5c0 .8.2 1.4 0 1.7-.1.2 0 0-.1.1l-.1-.1c0-.2.1-.3.1-.3 0-.3-.3-1.1-.4-1.3zm0-10.2h-.1c0-.1 0-.2 0-.3h.1zm.3 3.8v.5h-.1c0-.1-.1-.3-.1-.5zm0-14.5c-.3.1-.4-.1-.5-.1h.5zm-.4 2.1v.3h-.1c0-.1-.1-.3-.1-.5 0 .1.1.2.2.2zm-1.2 18.5v-.1c.4.1.3 0 .5.3h.1c0-.1 0-.3 0-.5.2.1.5.3.6.5-.1 0-.2 0-.3 0v.6h-.1c-.1-.2-.2-.4-.3-.6-.1 0-.2 0-.3 0v-.1c-.1-.1-.2-.1-.2-.1zm-.6-2.8c0-.3 0-.5 0-.8h-.1v-.1c.1.1.3.2.5.3v.6c-.2 0-.3 0-.4 0zm.1.3v.1c-.3.1-.4-.1-.5-.1zm.3-4.7c.1 0 .3-.1.5-.1 0 .3.1.5.1.8-.1 0-.2 0-.3 0v.3c-.3-.1-.1 0-.3-.1-.1 0-.2 0-.3 0v-.1h.5c-.1-.4-.1-.6-.2-.8zm.5-6.9h-.1v.1c-.3-.2-.3-.1-.6 0 0-.1 0-.2 0-.3h.8c-.1.1-.1.1-.1.2zm.1 4.2h-.1c-.1.2 0 0-.1.1 0-.1 0-.2 0-.3.2.1 0 0 .2.2zm-.3 8.6h-.1c-.1.2 0 0-.1.1 0-.1 0-.2 0-.3.2.1 0 0 .2.2zm0 .7c.1.2 0 0 .1.1v.1c-.5 0-.4 0-.6-.3.2.1.4.1.5.1zm.5-15.2c-.3-.1-.1 0-.3-.1.3.1.1 0 .3.1zm-.8-9.8h.5v.6c-.3-.1-.1 0-.3-.1h-.1c-.1-.2-.1-.3-.1-.5zm-.6 5.5h.1v.1h.1v.1c-.1 0-.2 0-.3 0 .1 0 .1-.1.1-.2zm.5 10.2v.1c-.4 0-.7 0-1 0v-.1zm-1.1-18.1h.1v.3h-.1c0-.1 0-.2 0-.3zm0 4.7c-.3-.1-.1 0-.3-.1.3 0 .1-.1.3.1zm-1.5-4.1h.1c-.1.2-.1.3-.1.6h-.1c0-.3 0-.3.1-.6zm0 24.4c-.1.2 0 0-.1.1-.1.3 0 .1-.1.3 0-.1-.1-.3-.1-.5.3.3-.1.2.3.1zm-.6-6.6v-.1h.6v.1c-.2 0-.4 0-.6 0zm.8 7.7c-.3-.1-.1 0-.3-.1.3 0 .1-.1.3.1zm-1.6-24.9c.1 0 .2.1.3.1-.1.3 0 .1-.1.3v.1h-.1c-.1-.1-.1-.3-.1-.5zm.3.9c-.1 0-.2 0-.3 0v-.1c.1 0 .3.1.5.1 0-.1.1-.2.1-.3.4-.3.3.1.5-.5h.1c-.1 1-.5 1.3-.5 2.4-.5-.1-.2-.1-.8 0 0-.4-.1-.8-.1-1.2.1.1.7-.2.5-.4zm-.3 7.3c.2.1.3.3.5.5v.1c-.4 0-.7 0-.8-.3.2-.1.3-.1.3-.3zm-.3 8.1h.3c-.1.3 0 .1-.1.3v.1h-.1c-.1-.1-.1-.2-.1-.4zm.2.8c.3.1.1 0 .3.1-.3-.1-.1 0-.3-.1zm0-2.9c0-.1 0-.2 0-.3.3-.1.1 0 .3-.1h.1c-.1.2-.2.3-.4.4zm.6 16.4c0-.1.1-.2.1-.3h.1c.2.1-.2.3-.2.3zm.6-.6h-.1c0-.1 0-.2 0-.3h.1zm0-.6h.1c.1-.2 0 0 .1-.1v.3c-.2-.1 0 0-.2-.2zm.6 5.1c-.1 0-.2 0-.3 0 0-.1 0-.2 0-.3h.1c.1.2 0 0 .1.1s.1.2.1.2zm.2-3.1c-.1 0-.2 0-.3 0 0-.1 0-.2 0-.3h.1c.1.2 0 0 .1.1s.1.1.1.2zm1.8-.6c-.3 0-.6 0-.9 0v-.1h.6c-.1-.4 0-.3-.5-.5v-.1h.5v.1h.1v.5h.1c.1 0 .1 0 .1.1zm-.2-1.2v.3h-.1c0-.1-.1-.3-.1-.5h.1c0-.1 0-.2 0-.3-.1 0-.2 0-.3 0v-.1h.1c.1-.2 0 0 .1-.1.1.2.2.3.1.6h-.1v.1zm-.4-1.3c-.1 0-.3 0-.5 0-.1.2 0 0-.1.1 0 .2.1.4.1.6-.2 0-.4.1-.6.1 0-.1-.1-.2-.1-.3-.3-.1-.3.1-.3.1-.5.1-.4-.6-.9.1h-.1c.1-.4.2-.4.5-.6v-.1h.5c.1-.2.3-.4.5-.6h.5s.1-.2.3-.3c0-.1 0-.3 0-.5.5-.1.6-.3 1.4-.3 0 .3-.1.6-.1.9-.9.3-1 .4-1.1.8zm1.6 2.5c-.3 0-.5 0-.8 0v-.1h.8zm.3-.2c.1-.2.2.1.1-.1.1 0 .2.1.3.1v.1s-.6.1-.4-.1zm.8 2.9h-.1c0-.1 0-.2 0-.3-.1 0-.2 0-.3 0 0-.1.1-.3.1-.5 0 0-.3-.1-.1-.3h.1v-.1h.1v.5h.1c.1.2.1.4.1.7zm-.5-3.6h-.1c-.1-.2.1-.5-.1-.6-.2 0-.4 0-.6 0v-.1h-.1v-.1c.1 0 .3.1.5.1v-.1h.1c0-.2-.1-.5-.1-.7h.1v.3c.1 0 .2.1.3.1v.1c.5.3.4-.2.8.3.3.1.1 0 .3.1-.7.1-.9-.2-1.1.6zm.8-25v.1c-.1 0-.3 0-.5 0v-.1c.3-.1.1 0 .3-.1h.6v.1c-.1 0-.3 0-.4 0zm1.2 29.3v-.1h-.1v.1c-.1 0-.3 0-.5 0 0-.4 0-.8 0-1.2-.1 0-.2 0-.3 0 0-.1 0-.2 0-.3h.3c0-.1 0-.2 0-.3h.5c-.1.2-.2.3-.5.5v.1h.6v.9h.1c-.1.3.1.2-.1.3zm.9-1.2c-.1.2 0 0-.1.1 0-.1 0-.2 0-.3.3.1.1 0 .3.1-.1.1-.2.1-.2.1zm-.5-.9c-.3.1-.1 0-.3.1h-.1c0-.1 0-.2 0-.3.1 0 .3-.1.5-.1 0-.1 0-.2 0-.3h.3c0-.2 0-.4 0-.6h.5c-.3.6-.6.8-.9 1.2zm1.1 1.2s0 0-.3-.3c0 .1.4.2.3.3zm.4.2c.3.1.1 0 .3.1-.3-.1-.1 0-.3-.1zm.6-1.8h-.1c-.2.3-.1 0-.3-.1h.1v.1h.1v-.1c.1-.1.4 0 .2.1zm.8.4h-.1c0-.1 0-.2 0-.3h.1zm.3 2h-.1c0-.1 0-.2 0-.3h.1zm0-4.1c-.3 0-.5-.1-.8-.1 0 .6.1.5.3.9-.1-.1-.3-.2-.5-.3 0-.3 0-.5 0-.8-.1 0-.2 0-.3 0v-.1c-.3-.1-.6.3-.8.5 0-.1 0-.2 0-.3h.3c-.1-.3 0-.1-.1-.3v-.1c.3 0 .5.1.8.1 0-.1 0-.2 0-.3-.1 0-.2 0-.3 0 0-.3-.1-.5-.1-.7h.1c.1-.2.1-.4.1-.8h.1v1.2h.1c.1.2.1.4.1.8.6-.1.8.1 1 .3zm.6-5.9c-.1 0-.2 0-.3 0v.5h.1v.1c-.1 0-.2 0-.3 0v.1c-.1 0-.3-.1-.6-.1 0-.3 0-.5 0-.8h.1v-.1c.3 0 .6.1.9.1.1.1.1.2.1.2zm.3-1c-.1 0-.6.1-.5-.1s.2.1.1-.1c.1 0 .2.1.3.1s.1 0 .1.1zm0-11.5h-.1c0-.1 0-.2 0-.3h.1zm0-7.3c-.1 0-.3.1-.5.1v-.1h-.1c-.2-.2.3-.1.3-.1v-.1c.1 0 .2.1.3.1zm.3-.3v-.1h.1v.3c-.3-.1-.1 0-.3-.1.1-.1.1-.1.2-.1zm0 21c-.1.2 0 0-.1.1 0-.1 0-.2 0-.3.3.1.1 0 .3.1-.1.1-.2.1-.2.1zm.3-9.7c-.3-.1-.1 0-.3-.1.3 0 .1-.1.3.1zm-.3-1.4c.3.1.1 0 .3.1-.3 0-.1.1-.3-.1zm.4 2.3h-.1c0-.1-.1-.3-.1-.5.2-.2.1 0 .1-.3h.1zm.2-1.7c-.1 0-.2 0-.3 0 0-.1 0-.2 0-.3h.1c.1.2 0 0 .1.1s.1.1.1.2zm0-1.5v.3c-.1 0-.3 0-.5 0v.1c-.1 0-.2 0-.3 0 .1-.2 0 0 .1-.1 0-.1.1-.2.1-.3zm19.7 15.3c0-5.4 0-10.2 0-15.8-.1 0-.3.1-.5.1 0-.1 0-.2 0-.3h.5c0-4.4 0-8.8 0-13.3-.1 0-.2 0-.3 0 .1-.3 0-.1.1-.3v-.1c-1.1 0-2.3 0-3.5 0 .1.3 0 .1.1.3v.1c-.4-.1-.4-.1-.6-.3v-.1c-3.1 0-6.1 0-9.2 0v20.9c.4-.1.3 0 .5-.5.1 0 .3.1.5.1v.1c-.1 0-.3 0-.5 0v.1h-.1c0 .3.1.5.1.8h-.1v.3h-.1v.9c-.3.9-.2 2.4-.1 3.5h.3v.5c-.1 0-.2 0-.3 0v7.2c.4-.4.2-.8.1-1.4h.3c0 .5 0 1-.1 1.4v.1h.1v.3c-.2-.1-.2-.1-.3-.3h-.1v1.4h.1c0-.1 0-.3 0-.5h.3v1.2c-.1 0-.3 0-.5 0v.3c.1 0 .3-.1.5-.1v.1h.9v-.1h.1c0-.1-.1-.2-.1-.3.1 0 .3-.1.5-.1v.6h11.5c0-2.2 0-4.3 0-6.5-.1 0-.3 0-.5 0-.1.3-.4.9-.6 1.1v.1h-.1c0-.2.1-.4.1-.6-.1 0-.2 0-.3 0v-.1h.6c0-.5.2-.3-.1-.6v-.1c.2 0 .5 0 .8-.1zm-12.3-7.3h-.1v-.1c-.2-.1 0 0-.1-.1h.3c-.1 0-.1.1-.1.2zm11.9 13.1c-.1 0-.2 0-.3 0v.3c-.1 0-.2 0-.3 0 0-.1 0-.2 0-.3.5-.2.2 0 .1-.5.4.1.4.1.5.5zm-.2-1.1c-.1 0-.2 0-.3 0v.5h-.1c0-.3-.1-.5-.1-.8.3.1.4.1.5.3zm.2-13.5c-.3-.1-.1 0-.3-.1.3 0 .1-.1.3.1zm-1.7 4.6h.5v.6c-.2.1-.2.1-.3.3-.1 0-.2 0-.3 0 0-.3 0-.5 0-.8h.1s0 0 0-.1zm-.1-4.9c-.3-.1-.1 0-.3-.1.3 0 .1-.1.3.1zm-.8-9.8h.1v.5h-.1c0-.2 0-.4 0-.5zm0 4.6c-.3-.1-.1 0-.3-.1.3.1.1 0 .3.1zm-.1 12.4c-.3-.1-.1 0-.3-.1.3 0 .1-.1.3.1zm-.5-24.7h.1v.3h-.1c0-.1 0-.2 0-.3zm0 18.1c-.3-.1-.1 0-.3-.1.3 0 .1-.1.3.1zm-.4 5.2c.3.1.1 0 .3.1h-.1c-.1.2 0 0-.1.1-.1 0-.1-.1-.1-.2zm-.6-20.7v-.1h.1v.3c-.3-.1-.1 0-.3-.1.1-.1.1-.1.2-.1zm.3 19.8v.3h-.1c0-.1 0-.2 0-.3zm-.3 3.3c.1.2 0 0 .1.1v.1c-.5 0-.5 0-.8-.3.3.1.5.1.7.1zm-.6-5.4c0-.1 0-.2 0-.3h.1v.3zm-.2-17.6c.1-.2.2.1.1-.1.1 0 .2.1.3.1v.1s-.6.1-.4-.1zm-1.3-3.2h.1v.1h.1v.1c-.1 0-.2 0-.3 0 .1 0 .1-.1.1-.2zm-.8 7.6h.3v.3c-.1 0-.2 0-.3 0 0-.1 0-.2 0-.3zm0 11.1v-.1h.1c.1-.3.2-.6.3-.9.1 0 .2-.1.3-.1 0-.2 0-.4 0-.6.1 0 .2-.1.3-.1 0-.1 0-.2 0-.3.1-.1.2-.1.3-.3h.8c0-.3 0-.6 0-.9h.1c.1.2.2.4.1.8h-.1v.1h.1c0 .2-.1.4-.1.6-.5 0-.4 0-.6.3h-.1c.1.2.1.3.1.6-.1 0-.2 0-.3 0v.5c-.1.1-.3.2-.5.3v.3c-.3.1-.5.3-.8.5v.1h-.1c0-.2.1-.4.1-.6.1-.2 0-.2 0-.2zm2 7.4v.1c-.2 0-.4 0-.6 0 0-.1 0-.2 0-.3.2.1.4.1.6.2zm-1.2-2.9c0 .3.1.6.1.9-.1 0-.2 0-.3 0 0-.3 0-.6 0-.9zm-.2-1.5c0-.1 0-.2 0-.3h.1v.3s0 0-.1 0zm.2 1.2c0-.3 0-.6 0-.9.1 0 .2.1.3.1v.5h-.1v.3c-.1 0-.2 0-.2 0zm-.2 1.4v.6c-.1 0-.2 0-.3 0 .1-.3 0-.1.1-.3 0-.1 0-.2 0-.3zm-.5-4.5c-.3-.1-.1 0-.3-.1.3 0 .2-.1.3.1zm-.6-21.4h.1v.3h-.1c0-.1 0-.2 0-.3zm0 7.2h.1v.1h.1v.1c-.1 0-.2 0-.3 0 .1 0 .1-.1.1-.2zm0 15.1c.1.3 0 .1.1.3v.1c-.1 0-.2 0-.3 0 0-.1-.1-.3-.1-.5.1.1.2.1.3.1zm-.1 5.8c.3.1.1 0 .3.1h-.1c-.1.2 0 0-.1.1-.1 0-.1-.1-.1-.2zm-.9-1c0-.1.1-.2.1-.3.4.1.6.2.8.5-.3-.1-.6-.2-.9-.2zm0-14.3h.3v.3c-.1 0-.2 0-.3 0 0-.1 0-.2 0-.3zm-.5 7.5c.3.2.5.5.6.8-.3-.2-.3-.3-.5-.5-.1 0-.2 0-.3 0 .1-.1.2-.2.2-.3zm.3 3.9v.3h-.1c0-.1 0-.2 0-.3zm-.9 2s0 0-.3-.3c.1 0 .4.1.3.3zm-.6-7.8h.1c.1.3.2.4.3.8-.1 0-.3-.1-.5-.1.1-.3.1-.5.1-.7zm-.3-.6h.1v.3h-.1c0-.1 0-.2 0-.3zm-.3-11.6c-.3-.1-.1 0-.3-.1.3 0 .2-.1.3.1zm-1.2 7.2v.3h-.1v-.1c-.2-.1 0 0-.1-.1 0-.1.1-.1.2-.1zm-.3 4.2c0-.1 0-.2 0-.3.4.1.5.2.8.3v.1c-.3 0-.5 0-.8-.1zm1.2 9.5c-.2 0-.4 0-.6 0 0-.1 0-.3 0-.5.3.1.2.2.6.3zm-.3-.8v-.1c.2-.1 0 0 .1-.1.4.1.3.2.8.3v.3c-.3-.2-.4-.3-.9-.4zm1.2 7c-.1 0-.2 0-.3 0 0-.1 0-.3 0-.5h.3zm-.3-10c0-.1.1-.2.1-.3h.1c.3.1-.2.3-.2.3zm1.4 3.6v-.1c-.3 0-.5 0-.8 0v-.1h-.1v-.1c.1.1.6.3.9.1-.1-.1-.2-.3-.3-.5.3.1.5.3.8.5-.1.2 0 0-.1.1v.1h-.1c-.2 0-.3 0-.3 0zm.4 7.9c-.1.2 0 0-.1.1 0-.1 0-.2 0-.3.3.1.1 0 .3.1-.1.1-.1.1-.2.1zm.5-5.8c0-.1 0-.2 0-.3h.1v.5c.1.2.1 0 .1.1-.2.1-.3.1-.6.1.2-.3.1-.2.4-.4zm.1 2.9s0 0-.3-.3c.1 0 .5.2.3.3zm0 1.5c-.4-.5.1-1 .3-1.4h.1c-.1.5-.2 1-.4 1.4zm1.2-2.1h-.1c-.1.3 0 .1-.1.3v.3h-.1c-.2-.4.3-.6-.3-.8v.1h-.1c0-.1 0-.3 0-.5.4 0 .5.1.8.3h.1c-.2.2-.2.3-.2.3zm0-3.9h.6c.1.2 0 0 .1.1v.1c-.3 0-.5-.1-.8-.1.1 0 .1-.1.1-.1zm2 5.3h.1v.1c-.1 0-.3 0-.5 0 0 .1-.1.2-.1.3-.4.1-.3-.3-.5-.3-.1 0-.2 0-.3 0 0-.1-.1-.3-.1-.5l.1-.1c-.4-.1 0-.1-.5 0 0-.1 0-.2 0-.3.5 0 1-.1 1.5-.1v.3h.3c.1.1-.1.3 0 .6zm.5-1.1c-.3-.1-.1 0-.3-.1h-.1v-.1h.5c-.1 0-.1.1-.1.2zm.9 3.9h-.1c.1-.2.3-.4.5-.6h.1c-.2.2-.4.4-.5.6zm.1-.9v.3h-.1c0-.1 0-.2 0-.3zm-.1-1.8c0-.1 0-.2 0-.3h.1v.3zm.6-1.2c-.3-.1-.2-.2-.6-.3 0 .2.1.4.1.6h.5v.1c-.2 0-.4 0-.6 0 0-.3 0-.4-.1-.6h-.1c0-.1 0-.3 0-.5h-.1c0-.2 0-.4 0-.6h.1c0 .1.1.3.1.5h.6v.1h.1zm-.8-2.3v-.1c.3-.1.1 0 .3-.1h.1c0 .1-.1.2-.1.3-.1-.1-.2-.1-.3-.1zm.3-1s-.6 0-.3-.1h.1v-.1l.1.1h.9c.1 0 0 .2.5.3v.1c-.2.2-1.2-.2-1.3-.3zm1.7 4.1v.1c-.1 0-.2 0-.3 0 .1-.1.2-.3.3-.5h.1c.1.3-.1.3-.1.4zm0-3.8h.5v.1c-.3.2-.5 0-.5-.1zm.4 2.9c-.1.2 0 0-.1.1 0-.1 0-.2 0-.3.3.1.1 0 .3.1-.1.1-.1.1-.2.1zm.5-2.6h-.1v-.1c-.2-.1 0 0-.1-.1h.3c-.1 0-.1.1-.1.2zm0-7.7h-.1c0-.1 0-.2 0-.3h.1zm0-11.3h-.1v-.1h.5v.3c-.4-.1-.3 0-.4-.2zm.3 9.2c.1-.2 0 0 .1-.1.1-.3 0-.1.1-.3 0 .1.1.3.1.5 0-.1-.2-.1-.3-.1zm-81.4-3.3v-.1c.1 0 .2.1.3.1 0-.1-.1-.3-.1-.5h.1c0-.1 0-.3 0-.5h.1c.1-.6.2-1.2.3-1.8h.1c0-.2 0-.4 0-.6h.1c-.2-1.3-.4-2.5-.6-3.8-.1 0-.3.1-.5.1v-.1c-.1 0-.2 0-.3 0v-.1c-.2-.1-.3.1-.3.1-.1 0-.3-.1-.5-.1 0-.1 0-.2 0-.3-.1 0-.2 0-.3 0v-.1c.5 0 1.1.1 1.7.1-.3-2-.6-3.9-.9-5.9-.7.2-.7.5-1.7.5-.2.7-.4.4-.9.8 0 .1-.1.2-.1.3-.1 0-.3 0-.5 0v.1c-.1 0-.2 0-.3 0v.1c-.1 0-.3 0-.5 0-.1.1-.2.3-.3.5-.1 0-.3 0-.5 0v.1c-.1 0-.2 0-.3 0 0 .1-.1.2-.1.3-.1 0-.2-.1-.3-.1 0 .1-.1.2-.1.3-.1 0-.3 0-.5 0v.1c-.4.1-.3 0-.5.5-.8 0-.8.2-1.2.5-.1 0-.2 0-.3 0 0 .1-.1.2-.1.3-.2 0-.4 0-.6 0 0 .1-.1.2-.1.3-.2 0-.4 0-.6 0v.1c-.1 0-.2 0-.3 0v.1c-.1 0-.2 0-.3 0 0 .1-.1.2-.1.3-.1 0-.3 0-.5 0v.1c-.2 0-.4.1-.6.1 0 1 .4 1.8.6 2.6v.8c.4 1.1.7 2.5 1 3.6.5 2.3 1 4.5 1.5 6.8h.1v.6h.1v.6h.1v.6h.1v.6h.1v.8h.1c0 .3.1.6.1.9 0 0 .6 0 .3-.1h-.1v-.1h1.7c0-.1 0-.2 0-.3.6 0 1-.1 1.4-.3.1-.1.2-.3.3-.5.6-.3 1.1.2 1.7-.3h.1c-.1.8-.5.7-.6 1.5-.3.1-.1 0-.3.1h-.1c0 .1.1.3.1.5.4 0 .5-.1.8-.3h.1c-.4.7-1.3.8-1.7 1.5h-.1c0-.1 0-.2 0-.3.1 0 .3-.1.5-.1.1-.3 0-.1.1-.3 0-.4-.1-.4-.1-.6-.5 0-1.1 0-1.7 0v.6h-.1c0-.1 0-.3 0-.5-.2 0-.4-.1-.6-.1v.1c-.1 0-.2 0-.3 0 .2.2 0 .1.3.1-.1.4 0 .3-.5.5.1-.3 0-.1.1-.3v-.1c-.2 0-.4 0-.6 0 0-.1 0-.3 0-.5-.1 0-.3.1-.5.1.1 1.8 1 3.1 1 4.8.3 0 .4 0 .6-.1v-.1h.9v-.1c.6-.1 1.3-.3 2-.5.2-1.7.7-3.5 1.2-5 0-.3 0-.5 0-.8h.1c0-.2 0-.4 0-.6.4-1.2.6-2.7 1.1-3.9 0-.2 0-.4 0-.6.8-.4 1.6-2.7 1.2-3.1zm-.6-10.2h.3v.5h.1v.1c-.1 0-.3 0-.5 0 .1-.2.1-.4.1-.6zm-9.3 9.6h-.1c0-.1 0-.2 0-.3h.1zm0-1.8c-.1 0-.3 0-.5 0v-.1c.1 0 .3-.1.5-.1zm1.5-3.9c-.1 0-.3-.1-.5-.1-.1-.2 0 0-.1-.1v-.1c.1.1.3.2.5.3v-.1h.1c0-.1 0 0 0 .1zm2.3-2.4c.3.1.1 0 .3.1h-.1c-.1.2 0 0-.1.1-.1 0-.1-.1-.1-.2zm-.9-.3s0 0-.3-.3c0 0 .4.1.3.3zm-.8 7.8c-.1 0-.2 0-.3 0 .1-.2.2-.4.3-.6h.1c0 .2-.1.2-.1.6zm1.1.1c-.1 0-.3 0-.5 0 .1-.1.2-.3.3-.5.1 0 .2.1.3.1 0 .2-.1.3-.1.4zm1.5-2.4c-.4.2-.5-.3-.6-.3s-.2 0-.3 0v-.1c-.3 0-.5.1-.8.1v-.1c-.3-.2-.3-.3-.8-.5 0-.1 0-.3 0-.5h.1v-.1c.8 0 1.1.4 1.8.5 0 .3.1.6.1.9h.3c.2 0 .2.1.2.1zm.3-1c-.9-.4-1.8-1.1-2.9-1.2 0-.1 0-.2 0-.3-.3-.1-.1 0-.3-.1h-.1c0-.1.1-.3.1-.5h.3c0 .1-.1.3-.1.5.5.1.5.1.8.3v.1h.5v.1c.5.2.6 0 1.2 0v.6c.2 0 .4.1.6.1-.1.2-.1.3-.1.4zm.4.6h-.1v-.1h-.1c0-.1.1-.3.1-.5h.1zm-.4-4.5c-.1 0-.2 0-.3 0v-.1c.1 0 .3-.1.5-.1 0-.1 0-.2 0-.3.3.1.1 0 .3.1-.3.1-.4.1-.5.4zm1.3 4.8c.1-.3 0-.1.1-.3v-.1h.1c0 .1.1.3.1.5 0-.1-.1-.1-.3-.1zm.5-7.8h-.1c0-.1 0-.2 0-.3h.1zm-2.6 25.9h-.1c0-.1 0-.3 0-.5-.1 0-.2 0-.3 0 0-.4-.1-.4-.1-.6.1 0 .3-.1.5-.1 0 .6-.2.5.1.7-.1.2-.1.3-.1.5zm3.3-8.9h-.1c-.1.3 0 .1-.1.3v.1h-.1c.1-.4.2-.3.3-.6h.1c-.1.1-.1.1-.1.2zm1.1-6.8h.3v.5h-.1v.1h-.1c-.1-.2-.1-.4-.1-.6zm-.5-.9h.3v.5c-.1 0-.2 0-.3 0 0-.2 0-.4 0-.5zm.6 5c-.3-.1-.1 0-.3-.1-.1 0-.2 0-.3 0v-.1c.1 0 .3.1.5.1l.1-.1zm.5-2.9v.3c-.1 0-.3 0-.5 0-.1-.3 0-.1-.1-.3.2-.2 0 .1.3 0 0 0 .2-.2.3-.3 0 .1.1.2.1.3zm-55.7-7.2h.3c0-.1 0-.2 0-.3-.2 0-.4 0-.6 0v.1h-.1v.5h.3v.3h.3c-.1-.2-.2-.4-.2-.6zm73 10.8v.3h.1c0-.3.1-.1-.1-.3zm52.6.8v.3h.1c-.1-.3 0-.2-.1-.3zm-113.4 2.2v.3h.1c-.1-.3 0-.1-.1-.3zm81 4.8v.3h.1c0-.3.1-.1-.1-.3zm-.3 1.1h.3c0-.3 0-.5 0-.8h-.1c-.2.3-.2.4-.2.8zm0 .6h.1c0-.1 0-.3 0-.5h-.1zm-40.1 1.8c-.3 0-.5 0-.8 0v.1c-.4 0-.7.1-1.1.1v.1c-.2 0-.4.1-.6.1-.2-.2 0-.1-.3-.1.2.9.4 1.8.6 2.7.2.5.4 1.1.5 1.8h.9c.1-1.3.6-2.7.9-3.8.2-.5 0-1 .3-1.4v-.1c-.1 0-.2 0-.3 0 0 .3 0 .4-.1.5zm-1.9 1.7h-.1v-.1h-.1c0-.1.1-.2.1-.3.1.1.3.1.1.4zm-56.8-.3c0-.1.1-.3.1-.5-.2 0-.4 0-.6 0 .1.3 0 .1.1.3.3.2.1.1.4.2zm.4 1.5c0-.3-.1-.6-.1-.9h-.1c0-.1-.1-.2-.1-.3-.1 0-.2 0-.3 0 .2.5.1 1 .3 1.5s.4 1.1.5 1.8h.3c0-.4.1-.8.1-1.2-.2-.1-.4-.3-.6-.5-.2-.3 0-.4 0-.4z" fill-rule="evenodd"/><path d="m38.1 2.3v-1.3h-37.4v37.9l4.3 1.2v-28.5l6.2-1.7v11.9l3.4-1v6.3l-3.4 1v13.9l8.2 2.4 18.7-5.4v-30.3l-13.9 3.9v-6.4zm-12.8 21.8v-6.3l8.5-2.4v18.5l-9.7 2.7v-6.3l3.8-1.1v-5.8zm-2.8 13-6.2-1.8v-26.9l6.2-1.7z"/><path d="m50 2.2h3.1v6.2h4.5v-6.2h3.1v15.5h-3.1v-6.8h-4.5v6.8h-3.1z"/><path d="m64.4 2.2h10.7v2.9h-7.5v3.2h5.1v2.9h-5.1v3.6h7.8v2.9h-11z"/><path d="m79 2.2h4.9c3.4 0 5.2 1.6 5.2 4.6 0 2.6-1.8 3.5-2.7 4l3.1 6.9h-3.3l-2.8-6.3h-1.3v6.3h-3.1zm3.1 2.5v4.3h.5c1.3 0 3.1 0 3.1-2.1 0-1.5-.8-2.1-2.7-2.1z"/><path d="m92.2 9.7c0-4.6.8-8 5.3-8 5 0 5.4 4 5.4 8.2 0 4.3-.5 8.1-5.4 8.1-5.1 0-5.3-4.4-5.3-8.3m3.4-.4c0 4 .3 5.9 1.9 5.9 1.4 0 1.9-1.4 1.9-4.8 0-1.1-.1-3.2-.3-4-.1-1-.7-1.9-1.7-1.9-1.3 0-1.8 1.4-1.8 4.8"/><path d="m106.7 2.2h10.6v2.9h-7.5v3.2h5.2v2.9h-5.2v3.6h7.9v2.9h-11z"/><path d="m123 13.1c1 1.5 1.9 2.1 2.9 2.1 1.1 0 1.9-.8 1.9-1.7 0-1.2-1.4-1.8-2.7-2.3-.9-.4-4.3-1.5-4.3-4.9 0-2.6 2.1-4.5 5.1-4.5 2.5 0 3.9 1.6 4.7 2.9l-2.2 1.6c-1-1.4-1.8-1.9-2.8-1.9-.9 0-1.6.6-1.6 1.4 0 1.2.9 1.6 2.6 2.3 1.9.8 4.3 1.8 4.3 5.2 0 2.8-2.1 4.7-5.3 4.7-2.9 0-4.4-2.1-5-3.3z"/><path d="m56.8 26.9c-.1-1.5-.9-2.3-2.1-2.3-1.3 0-2.1 1-2.1 2.6v4.8c0 2.4.3 4.2 2.3 4.2 1.5 0 2.6-1.2 2.6-2.9v-.8h-2.5v-2.3h5.5v8.1h-1.5l-.5-1.6c-.9 1.1-2.1 1.7-3.9 1.7-4.1 0-5.5-2.6-5.5-7.1v-1.7c0-6.6 3.2-7.4 6-7.4 2.1 0 4.6.6 4.8 4.8z"/><path d="m64.3 22.6h10.6v2.9h-7.5v3.2h5.2v2.9h-5.2v3.6h7.9v2.9h-11z"/><path d="m78.9 22.6h3.3l4.8 9.8v-9.8h2.9v15.5h-2.9l-5.2-10.6v10.6h-2.9z"/><path d="m93.9 22.6h10.6v2.9h-7.5v3.2h5.2v2.9h-5.2v3.6h7.9v2.9h-11z"/><path d="m108.7 22.6h4.9c3.4 0 5.2 1.6 5.2 4.6 0 2.6-1.8 3.5-2.7 4l3.1 6.9h-3.3l-2.8-6.3h-1.3v6.3h-3.1zm3.1 2.6v4.3h.5c1.3 0 3.1 0 3.1-2.1 0-1.5-.8-2.1-2.7-2.1z"/><path d="m125.6 22.6h4l4.4 15.5h-3.1l-1-3.5h-5l-1 3.5h-2.6zm1.7 3.2-1.8 6.5h3.7z"/><path d="m137.1 22.6h3.2v12.6h5.7v2.9h-8.9z"/><path d="m150.5 33.6c1 1.5 1.9 2.1 2.9 2.1 1.1 0 1.9-.8 1.9-1.7 0-1.2-1.4-1.8-2.7-2.3-.9-.4-4.3-1.5-4.3-4.9 0-2.6 2.1-4.5 5.1-4.5 2.5 0 3.9 1.6 4.7 2.9l-2.2 1.6c-1-1.4-1.8-1.9-2.8-1.9-.9 0-1.6.6-1.6 1.4 0 1.2.9 1.6 2.6 2.3 1.9.8 4.3 1.8 4.3 5.2 0 2.8-2.1 4.7-5.3 4.7-2.9 0-4.4-2.1-5-3.3z"/><path d="m146.7 17.8h-11.3v-2.5h11.3zm-7.7-9.2c.7 1 1.4 1.8 2.1 2.5-.4.3-.9.4-1.4.4-.9 0-1.5-.7-1.5-1.5-.1-.5.3-1 .8-1.4m1.3-2.8c-.4-.5-.5-.8-.5-1.1 0-.5.4-.8.9-.8.4 0 .7.3.7.8s-.6.8-1.1 1.1m2.6 3.5c-.7-.8-1.2-1.5-1.5-2.1.9-.4 2.3-1.2 2.3-2.8 0-1.4-1.2-2.4-3-2.4-2.1 0-3.4 1.2-3.4 2.8 0 .5.2 1.2.6 2-1.1.5-2.6 1.6-2.6 3.6s1.6 3.2 4.1 3.2c1.4 0 2.5-.5 3.3-.9.5.4 1.1.9 2.2.9.6 0 1.3-.2 1.8-.5v-2.3c-.7.3-1.5.4-2.1.1.6-.7 1.2-1.6 1.6-2.4l-2.2-1.2c-.2.7-.6 1.4-1.1 2"/></g></svg>